<?xml version="1.0" standalone="no"?>
<!DOCTYPE svg PUBLIC "-//W3C//DTD SVG 20010904//EN"
 "http://www.w3.org/TR/2001/REC-SVG-20010904/DTD/svg10.dtd">
<svg version="1.0" xmlns="http://www.w3.org/2000/svg"
 width="2500.000000pt" height="2500.000000pt" viewBox="0 0 2500.000000 2500.000000"
 preserveAspectRatio="xMidYMid meet">
<metadata>
Created by potrace 1.14, written by Peter Selinger 2001-2017
</metadata>
<g transform="translate(0.000000,2500.000000) scale(0.100000,-0.100000)"
fill="#000000" stroke="none">
<path d="M15255 24158 c-2 -7 -16 -58 -31 -113 -98 -375 -273 -652 -510 -806
-200 -131 -495 -200 -862 -201 -103 -1 -373 9 -483 17 -29 2 -105 7 -168 10
-120 6 -153 9 -306 20 -49 3 -112 8 -140 10 -51 3 -138 12 -210 20 -22 3 -62
7 -90 10 -43 5 -158 22 -270 41 -194 32 -511 97 -775 159 -85 20 -162 38 -170
40 -35 8 -166 37 -180 40 -28 6 -185 34 -215 39 -28 4 -85 12 -145 21 -14 2
-59 7 -100 10 -41 4 -93 9 -115 11 -65 7 -404 6 -485 -1 -303 -24 -503 -74
-810 -199 -615 -252 -1102 -753 -1360 -1401 -90 -225 -173 -513 -204 -705 -3
-19 -8 -46 -11 -60 -3 -14 -8 -43 -10 -65 -3 -22 -7 -51 -10 -65 -2 -14 -7
-49 -10 -79 -4 -30 -8 -61 -10 -70 -10 -54 -19 -276 -20 -456 0 -202 6 -296
25 -435 5 -36 12 -87 15 -115 3 -27 8 -61 10 -75 2 -14 7 -47 10 -75 14 -123
64 -391 92 -495 8 -30 21 -80 28 -110 43 -170 154 -450 251 -631 67 -126 185
-305 268 -408 34 -42 125 -157 201 -256 77 -99 145 -187 152 -195 41 -51 192
-242 213 -269 14 -18 43 -56 66 -84 50 -63 114 -157 114 -167 0 -7 -141 -84
-405 -220 -173 -90 -256 -134 -413 -222 -67 -37 -127 -68 -132 -68 -6 0 -10
-4 -10 -10 0 -5 -4 -10 -10 -10 -7 0 -125 -70 -324 -193 -209 -129 -541 -376
-716 -533 -464 -415 -673 -636 -963 -1020 -79 -104 -275 -393 -308 -454 -11
-19 -25 -44 -32 -55 -96 -154 -259 -483 -339 -685 -54 -136 -109 -287 -113
-310 -3 -18 -27 -78 -97 -244 -110 -260 -161 -393 -224 -584 -49 -148 -125
-434 -139 -522 -3 -19 -8 -48 -11 -63 -3 -16 -7 -38 -9 -50 -1 -12 -8 -51 -13
-87 -14 -83 -25 -176 -37 -305 -4 -38 -8 -86 -10 -105 -3 -31 -8 -110 -21
-365 -5 -96 -5 -811 0 -910 2 -38 7 -128 10 -200 4 -71 9 -150 11 -175 3 -25
7 -82 10 -128 3 -45 8 -101 10 -123 2 -23 7 -73 10 -113 3 -39 7 -87 10 -106
2 -19 7 -57 10 -85 4 -44 42 -356 50 -410 28 -202 29 -213 49 -337 9 -54 23
-142 32 -195 16 -104 68 -387 94 -518 5 -27 11 -61 14 -75 2 -14 11 -54 19
-90 9 -36 18 -85 22 -110 4 -24 8 -47 10 -50 2 -3 22 -89 45 -190 71 -320 116
-488 181 -683 35 -104 125 -349 144 -392 7 -16 34 -81 59 -144 48 -116 64
-152 142 -320 24 -51 44 -95 44 -98 0 -7 192 -390 247 -492 80 -149 183 -332
247 -439 33 -56 66 -112 72 -123 36 -66 245 -382 337 -512 87 -121 298 -393
352 -453 5 -7 24 -29 42 -50 17 -22 39 -49 50 -60 10 -12 41 -48 68 -79 28
-32 55 -63 60 -69 6 -6 48 -54 95 -106 85 -96 447 -461 530 -535 90 -81 217
-191 259 -225 23 -19 48 -40 54 -45 15 -13 122 -97 207 -161 463 -355 1057
-690 1630 -920 74 -30 144 -59 155 -64 35 -16 327 -117 415 -143 183 -55 459
-119 615 -142 11 -2 40 -6 65 -9 25 -4 52 -9 60 -11 8 -2 43 -7 77 -10 35 -4
75 -9 90 -11 16 -1 57 -6 93 -10 36 -3 78 -8 95 -10 200 -23 820 -23 1100 0
22 2 81 7 130 11 50 4 97 8 105 10 8 2 44 6 80 10 67 7 383 50 433 60 15 2 53
9 85 15 31 5 71 12 87 15 27 4 349 71 385 80 620 145 1165 334 1640 568 420
207 963 535 1370 826 47 33 93 66 103 73 78 55 314 235 412 316 463 382 777
691 1020 1006 232 300 629 916 803 1246 24 47 48 90 52 95 12 15 162 316 215
430 145 313 267 628 371 965 45 144 193 708 210 800 3 14 10 45 15 70 6 25 13
54 15 65 2 11 6 31 9 45 3 14 12 65 21 115 8 49 17 92 19 95 1 3 6 32 9 65 4
33 9 67 11 75 2 8 6 42 10 75 3 33 8 71 10 85 3 24 9 77 20 185 27 281 34 713
20 1325 -4 173 -8 446 -10 605 -2 160 -6 331 -9 380 -12 186 -18 271 -21 300
-2 17 -6 62 -10 100 -9 99 -14 146 -30 255 -2 14 -6 45 -10 70 -33 253 -121
691 -195 970 -22 85 -43 163 -45 173 -2 10 -9 32 -14 50 -6 18 -31 100 -57
182 -97 317 -251 731 -371 995 -130 287 -194 414 -306 610 -310 543 -723 1045
-1181 1435 -32 28 -66 57 -75 66 -57 55 -339 268 -506 381 -588 402 -1177 686
-1980 956 -204 69 -551 176 -700 217 -55 15 -120 33 -145 40 -47 15 -311 84
-344 91 -10 2 -55 13 -100 25 -45 12 -119 30 -166 41 -47 10 -92 21 -100 23
-31 8 -326 74 -350 79 -14 2 -45 9 -70 15 -25 5 -56 12 -70 15 -14 2 -104 21
-200 40 -96 20 -186 39 -200 41 -14 3 -36 7 -50 10 -14 2 -38 7 -55 11 -16 3
-57 12 -90 19 -33 8 -145 33 -250 55 -756 164 -1313 335 -1690 520 -179 88
-216 109 -356 201 -320 211 -445 366 -703 873 -174 343 -220 508 -253 901 -14
169 -6 725 11 754 2 3 7 35 10 71 9 86 19 127 60 252 124 379 339 563 716 613
91 12 298 5 460 -15 41 -6 93 -12 115 -15 22 -2 51 -7 65 -10 14 -2 39 -7 55
-9 112 -18 161 -27 280 -52 38 -8 86 -17 105 -20 19 -3 38 -8 43 -11 4 -2 20
-6 35 -9 15 -2 65 -14 112 -25 47 -12 92 -22 100 -24 8 -2 179 -44 380 -95
201 -50 373 -93 383 -95 10 -2 26 -6 35 -9 9 -3 28 -7 42 -10 14 -3 50 -10 80
-16 30 -6 71 -13 90 -16 19 -3 87 -14 150 -24 63 -11 138 -22 165 -25 28 -4
57 -8 65 -10 65 -17 345 -24 462 -12 314 33 630 173 923 410 123 100 272 274
345 402 134 234 240 538 294 840 3 17 8 39 10 50 2 11 7 42 10 68 4 27 9 57
11 66 2 10 6 44 9 77 3 32 9 77 11 99 12 92 16 163 20 408 5 234 3 281 -10
245z m-5494 -7579 c241 -117 603 -251 984 -364 50 -15 104 -31 120 -36 101
-30 486 -134 575 -154 8 -2 74 -17 145 -35 138 -33 290 -69 315 -75 215 -46
522 -115 650 -146 91 -23 174 -43 185 -45 11 -2 88 -22 170 -44 83 -22 157
-42 165 -44 31 -8 237 -68 295 -86 460 -144 747 -248 1115 -404 203 -86 635
-303 810 -407 85 -50 166 -98 180 -106 52 -28 304 -198 485 -324 317 -222 583
-466 877 -804 28 -32 194 -238 226 -280 50 -66 192 -272 242 -350 35 -55 73
-116 86 -135 66 -104 236 -429 312 -600 108 -242 245 -657 278 -840 3 -14 11
-52 19 -85 12 -57 41 -229 51 -305 2 -19 6 -46 9 -60 2 -14 7 -52 10 -85 4
-33 8 -69 10 -80 1 -11 6 -61 10 -110 4 -50 9 -101 11 -115 21 -177 21 -871
-1 -1060 -2 -19 -6 -74 -10 -122 -3 -48 -8 -98 -10 -110 -2 -13 -6 -52 -9 -88
-4 -36 -8 -75 -10 -85 -2 -11 -7 -45 -10 -76 -4 -31 -8 -65 -10 -75 -5 -26
-15 -91 -22 -139 -3 -22 -7 -47 -9 -55 -2 -8 -7 -35 -10 -60 -17 -121 -120
-592 -170 -770 -20 -75 -86 -345 -126 -515 -143 -621 -226 -909 -382 -1325
-110 -294 -337 -787 -472 -1025 -29 -52 -52 -95 -49 -95 2 0 -7 -17 -20 -38
-13 -20 -73 -119 -132 -220 -60 -101 -116 -194 -124 -207 -8 -13 -28 -45 -44
-72 -61 -99 -215 -335 -300 -458 -110 -157 -389 -521 -426 -555 -3 -3 -34 -39
-70 -80 -152 -176 -376 -400 -535 -535 -38 -33 -72 -62 -75 -65 -9 -10 -155
-126 -216 -172 -103 -77 -343 -232 -469 -302 -352 -195 -747 -343 -1125 -419
-140 -29 -149 -30 -311 -51 -281 -37 -702 -42 -934 -11 -107 14 -255 38 -285
45 -19 5 -69 16 -110 25 -225 50 -533 154 -760 257 -25 12 -74 34 -110 50 -66
30 -342 178 -415 224 -22 13 -47 27 -55 31 -15 7 -334 217 -354 234 -6 5 -63
48 -126 96 -104 78 -257 199 -270 213 -3 3 -23 20 -45 39 -160 135 -495 463
-625 610 -36 41 -74 83 -85 95 -11 12 -51 59 -90 106 -82 99 -74 89 -164 205
-39 50 -74 95 -79 100 -4 6 -18 26 -32 45 -13 19 -27 37 -30 40 -13 12 -136
188 -237 340 -309 464 -546 915 -799 1520 -52 123 -94 228 -94 232 0 5 -8 27
-19 51 -10 23 -29 69 -41 102 -12 33 -26 69 -31 80 -11 26 -96 257 -166 455
-77 215 -152 457 -178 570 -2 8 -12 51 -23 95 -21 83 -71 301 -78 345 -3 14
-16 84 -29 155 -13 72 -27 144 -29 160 -20 121 -36 228 -41 270 -3 28 -8 61
-10 75 -8 58 -15 108 -20 160 -4 30 -8 66 -10 80 -2 14 -7 59 -10 100 -3 41
-8 91 -10 110 -2 19 -6 76 -10 125 -3 50 -8 104 -10 120 -6 54 -18 427 -18
565 0 147 10 442 17 476 2 11 7 63 11 115 4 52 8 117 11 144 2 28 6 86 9 130
5 76 9 121 20 260 11 127 16 181 20 220 6 52 13 117 20 180 3 28 8 68 11 90 3
22 8 54 10 70 5 44 25 177 30 200 2 11 11 61 19 110 25 144 71 349 115 510 22
83 42 157 45 165 13 50 109 321 144 408 121 299 408 909 532 1132 207 370 429
715 768 1200 349 499 576 759 911 1045 51 44 130 112 175 150 44 39 97 82 116
97 90 70 155 117 165 117 5 1 48 -17 95 -40z"/>
<path d="M10862 15833 c-5 -15 -56 -154 -112 -308 -56 -154 -110 -302 -119
-330 -18 -51 -122 -337 -191 -525 -42 -115 -189 -521 -251 -695 -22 -60 -43
-117 -46 -125 -3 -8 -7 -17 -8 -20 -1 -3 -4 -12 -8 -20 -3 -8 -20 -55 -37
-105 -17 -49 -44 -124 -60 -165 -15 -41 -51 -138 -78 -215 -253 -702 -315
-875 -329 -910 -13 -35 -66 -183 -228 -631 -24 -66 -48 -132 -54 -145 -6 -13
-42 -112 -80 -219 -38 -107 -82 -226 -96 -265 -15 -38 -28 -74 -29 -80 -2 -5
-6 -17 -9 -25 -8 -20 -89 -245 -147 -410 -27 -74 -128 -353 -225 -620 -97
-267 -189 -521 -205 -565 -16 -44 -45 -125 -65 -180 -31 -83 -67 -182 -120
-330 -3 -11 -13 -36 -20 -55 -8 -19 -72 -197 -144 -395 -170 -473 -452 -1253
-501 -1385 -35 -95 -124 -342 -202 -560 -17 -47 -43 -117 -58 -156 l-28 -71
51 -137 c28 -75 53 -136 57 -136 4 0 14 19 23 43 24 64 167 459 278 767 55
151 104 284 109 295 5 11 38 101 74 200 36 99 95 261 131 360 37 99 79 216 95
260 15 44 67 186 115 315 48 129 92 249 97 265 23 68 79 221 88 240 5 11 22
58 39 105 16 47 50 141 76 210 25 69 53 145 62 170 8 25 25 72 38 105 25 65
99 267 101 275 0 3 6 19 13 35 7 17 14 37 16 45 3 8 47 132 100 275 92 251
354 966 421 1150 69 189 103 282 125 340 13 33 24 62 24 65 9 37 19 67 25 75
4 6 17 39 29 75 12 36 25 72 28 80 16 40 57 152 118 320 37 102 74 201 81 220
7 19 28 78 47 130 41 114 315 864 572 1565 103 281 198 539 210 575 65 178
117 320 263 720 194 530 178 480 154 480 -11 0 -40 8 -64 19 -24 10 -64 21
-89 25 -45 7 -47 6 -57 -21z"/>
<path d="M12289 15503 c-5 -16 -18 -50 -29 -78 -22 -59 -205 -558 -230 -630
-9 -27 -34 -95 -54 -150 -21 -55 -54 -147 -76 -205 -21 -58 -81 -224 -134
-370 -53 -146 -105 -287 -116 -315 -10 -27 -37 -102 -60 -165 -22 -63 -45
-124 -49 -135 -5 -11 -30 -78 -56 -150 -82 -228 -286 -789 -294 -810 -10 -25
-37 -98 -89 -240 -23 -60 -75 -204 -118 -320 -42 -115 -80 -221 -85 -235 -4
-14 -21 -61 -37 -105 -54 -145 -212 -576 -298 -815 -47 -129 -89 -244 -94
-255 -5 -11 -30 -78 -55 -150 -26 -71 -69 -190 -96 -263 -27 -73 -49 -135 -49
-138 0 -3 -6 -20 -14 -37 -7 -18 -18 -45 -24 -62 -24 -69 -94 -262 -102 -280
-5 -11 -39 -103 -75 -205 -37 -101 -73 -200 -80 -220 -21 -53 -245 -667 -267
-730 -11 -30 -46 -129 -80 -220 -33 -91 -75 -208 -94 -260 -19 -52 -41 -111
-49 -130 -7 -19 -35 -93 -60 -165 -26 -71 -60 -166 -77 -210 -17 -44 -44 -118
-60 -165 -16 -47 -35 -98 -43 -115 -7 -16 -16 -41 -20 -55 -4 -14 -18 -52 -30
-85 -13 -33 -62 -168 -110 -300 -48 -132 -102 -280 -120 -330 -19 -49 -68
-184 -109 -300 -42 -115 -80 -219 -85 -230 -8 -18 -113 -304 -222 -607 -76
-211 -118 -326 -188 -516 l-71 -194 63 -64 c34 -35 72 -83 84 -105 14 -26 25
-36 27 -28 3 8 17 46 32 84 14 39 27 75 28 80 2 6 6 17 9 25 7 16 174 475 237
650 78 218 121 336 135 370 8 19 42 112 75 205 34 94 77 211 95 260 18 50 56
155 85 235 28 80 56 153 61 162 5 10 9 23 9 29 0 6 6 25 14 42 8 18 19 46 24
62 6 17 94 260 197 540 102 281 207 566 231 635 25 69 49 133 54 142 6 10 10
23 10 29 0 6 6 25 14 42 12 28 67 179 191 522 18 50 111 306 208 570 96 264
196 539 222 610 26 72 60 164 75 205 16 41 58 158 95 260 36 102 73 201 80
220 19 46 202 547 230 630 13 36 80 220 150 410 70 190 137 374 150 410 12 36
60 166 105 290 46 124 97 266 115 315 133 368 197 543 205 560 5 11 39 103 75
205 74 203 145 398 205 561 22 59 40 110 40 114 0 4 6 21 14 38 8 18 56 147
106 287 51 140 108 298 127 350 19 52 52 142 73 200 31 86 249 682 276 755 4
11 4 17 0 14 -4 -4 -44 6 -89 22 -105 37 -125 37 -138 2z"/>
<path d="M13815 15033 c-10 -32 -22 -65 -26 -73 -5 -8 -54 -141 -110 -295 -56
-154 -115 -316 -131 -360 -16 -44 -49 -134 -73 -200 -23 -66 -91 -250 -150
-410 -59 -159 -111 -303 -117 -320 -5 -16 -14 -39 -18 -50 -5 -11 -45 -121
-90 -245 -45 -124 -85 -234 -90 -245 -4 -11 -16 -42 -25 -70 -15 -43 -45 -123
-70 -190 -5 -11 -9 -24 -10 -30 -2 -5 -32 -89 -68 -185 -36 -96 -74 -200 -85
-230 -25 -70 -168 -462 -189 -515 -13 -36 -160 -437 -360 -985 -41 -113 -89
-245 -108 -295 -18 -49 -87 -241 -154 -425 -68 -184 -126 -344 -131 -355 -5
-11 -36 -94 -69 -185 -56 -155 -314 -858 -386 -1055 -18 -49 -70 -191 -115
-315 -45 -124 -88 -243 -97 -265 -14 -37 -89 -242 -168 -460 -18 -49 -84 -227
-145 -395 -62 -168 -127 -345 -145 -395 -18 -49 -58 -160 -89 -245 -32 -85
-77 -209 -101 -275 -24 -66 -56 -151 -70 -190 -15 -38 -30 -81 -35 -95 -4 -14
-39 -110 -78 -215 -38 -104 -106 -291 -151 -415 -45 -124 -88 -241 -96 -260
-26 -67 -263 -715 -309 -845 -12 -33 -24 -64 -28 -70 -3 -5 -10 -26 -16 -45
-6 -19 -38 -109 -72 -200 -33 -91 -62 -169 -64 -175 -2 -5 -7 -21 -13 -35 -5
-14 -23 -61 -38 -106 -26 -74 -27 -84 -15 -114 7 -18 33 -53 56 -79 39 -42 43
-44 50 -26 4 11 19 54 35 95 15 41 73 201 129 355 56 154 106 289 111 300 5
11 40 108 79 215 39 107 75 204 80 215 4 11 31 83 58 160 28 77 104 286 170
465 118 319 220 597 329 895 30 83 68 184 84 226 15 42 71 193 123 335 230
630 307 841 321 874 8 19 34 91 59 160 24 69 72 199 106 290 34 91 63 170 64
175 2 6 6 17 9 25 3 8 22 60 42 115 20 55 42 116 50 135 8 19 30 80 50 135 19
55 39 109 44 120 5 11 16 40 24 65 9 25 39 108 68 185 28 77 66 181 84 230 18
50 92 252 165 450 73 198 139 376 146 395 49 138 156 429 163 445 5 11 19 49
31 85 12 36 26 74 31 85 9 20 46 122 182 495 121 329 394 1071 410 1115 9 22
52 141 97 265 114 313 179 492 189 515 5 11 29 76 54 145 102 279 340 930 367
1000 34 89 175 474 200 545 9 28 59 163 110 300 117 315 123 335 106 335 -8 0
-39 11 -70 25 -31 14 -62 25 -69 25 -7 0 -21 -26 -32 -57z"/>
<path d="M15127 14413 c-14 -38 -53 -144 -87 -238 -34 -93 -65 -179 -70 -190
-5 -11 -13 -33 -18 -50 -6 -16 -85 -235 -177 -485 -92 -250 -184 -502 -205
-560 -20 -58 -93 -256 -160 -440 -138 -375 -171 -466 -228 -625 -22 -60 -99
-270 -170 -465 -72 -195 -183 -499 -247 -675 -64 -176 -125 -342 -135 -370 -9
-27 -36 -102 -60 -165 -23 -63 -57 -155 -75 -205 -18 -49 -86 -234 -150 -410
-65 -176 -135 -369 -156 -430 -22 -60 -43 -119 -48 -130 -5 -11 -48 -128 -96
-260 -110 -303 -430 -1179 -462 -1265 -13 -36 -34 -94 -47 -130 -13 -36 -85
-234 -161 -440 -206 -565 -294 -806 -330 -905 -31 -84 -72 -197 -150 -410 -18
-49 -94 -259 -169 -465 -76 -206 -145 -397 -156 -425 -10 -27 -21 -59 -26 -70
-7 -21 -40 -112 -93 -260 -18 -49 -36 -99 -41 -110 -9 -21 -30 -77 -90 -245
-21 -58 -51 -141 -68 -185 -16 -44 -96 -262 -177 -485 -81 -223 -161 -441
-177 -485 -17 -44 -46 -125 -65 -180 -19 -55 -41 -113 -48 -130 -21 -48 -76
-207 -73 -210 7 -6 125 -53 141 -57 19 -3 29 20 156 372 125 343 245 669 257
697 8 17 14 36 14 42 0 6 4 19 10 29 5 9 23 55 39 102 17 47 57 157 89 245 50
135 191 517 327 891 65 178 107 290 140 379 18 50 71 191 116 315 123 338 135
370 157 430 24 63 159 431 207 565 18 50 84 227 145 395 62 168 161 438 220
600 59 162 121 331 138 375 17 44 67 181 112 305 45 124 94 259 110 300 15 41
58 158 95 260 85 233 106 290 116 315 5 11 27 72 50 135 64 178 99 272 214
585 59 160 124 337 145 395 21 58 61 168 89 245 29 77 79 212 111 300 32 88
65 178 73 200 9 22 52 141 97 265 45 124 93 253 106 287 13 34 24 64 24 67 0
2 5 17 12 33 6 15 12 33 14 38 1 6 30 84 64 175 34 91 82 221 106 290 25 69
51 141 59 160 14 32 423 1146 467 1270 21 58 134 369 224 610 29 80 78 213
108 295 l55 150 -23 20 c-18 16 -98 64 -137 83 -3 1 -17 -28 -32 -65z"/>
<path d="M16355 13538 c-2 -7 -52 -143 -111 -303 -58 -159 -121 -330 -139
-380 -226 -622 -318 -873 -326 -890 -4 -11 -17 -45 -28 -75 -10 -30 -56 -154
-101 -275 -45 -121 -86 -233 -91 -250 -5 -16 -13 -39 -18 -50 -5 -11 -50 -135
-101 -275 -50 -140 -96 -264 -101 -275 -5 -11 -24 -65 -44 -120 -19 -55 -39
-109 -44 -120 -5 -11 -16 -40 -24 -65 -9 -25 -39 -108 -67 -185 -29 -77 -68
-183 -86 -235 -19 -52 -62 -169 -95 -260 -34 -91 -77 -207 -95 -257 -19 -51
-49 -135 -68 -185 -19 -51 -62 -169 -96 -263 -34 -93 -72 -197 -85 -230 -13
-33 -46 -124 -74 -201 -28 -78 -55 -152 -60 -165 -5 -13 -28 -73 -49 -134
-108 -295 -197 -539 -227 -620 -19 -49 -57 -153 -85 -230 -73 -201 -123 -336
-165 -450 -20 -55 -55 -149 -76 -210 -22 -60 -42 -117 -46 -125 -3 -8 -7 -17
-7 -20 -1 -3 -9 -25 -19 -50 -29 -77 -257 -699 -303 -825 -23 -66 -57 -158
-74 -205 -18 -47 -43 -114 -56 -150 -13 -36 -35 -96 -49 -135 -14 -38 -55
-149 -90 -245 -35 -96 -68 -186 -74 -200 -5 -14 -46 -126 -91 -250 -44 -124
-85 -234 -90 -245 -4 -11 -44 -119 -88 -240 -199 -546 -233 -641 -241 -660 -5
-11 -17 -42 -26 -70 -10 -27 -28 -77 -40 -110 -13 -33 -35 -94 -50 -135 -15
-41 -30 -84 -35 -95 -5 -11 -20 -51 -34 -90 -13 -38 -81 -225 -151 -415 -69
-190 -147 -401 -171 -470 -39 -108 -59 -162 -81 -217 -4 -10 21 -13 105 -13
l111 0 21 58 c12 31 73 199 136 372 63 173 121 331 129 350 13 31 417 1129
467 1270 60 166 200 548 208 565 5 11 32 85 60 165 28 80 55 154 60 165 5 11
45 119 89 240 44 121 150 411 236 645 86 234 161 439 167 455 6 17 31 84 55
150 41 109 187 507 268 730 18 50 108 295 200 545 244 663 351 956 416 1135
22 61 44 119 49 130 5 11 38 101 73 200 36 99 88 241 115 315 28 74 123 333
211 575 89 242 170 463 180 490 21 55 93 251 196 535 37 102 71 194 75 205 5
11 68 182 140 380 72 198 144 394 160 435 15 41 65 176 110 300 45 124 92 252
105 285 12 33 48 132 80 220 31 88 61 169 66 180 10 23 146 394 151 412 3 10
-123 150 -151 167 -6 4 -13 1 -16 -6z"/>
<path d="M17301 11788 c-57 -154 -117 -317 -133 -362 -17 -45 -36 -99 -43
-121 -8 -22 -26 -71 -40 -110 -15 -38 -46 -124 -70 -190 -24 -66 -60 -165 -80
-220 -38 -103 -53 -144 -128 -350 -201 -552 -465 -1273 -557 -1525 -62 -168
-118 -323 -125 -345 -7 -22 -18 -51 -24 -65 -5 -14 -69 -187 -141 -385 -72
-198 -156 -427 -186 -510 -31 -82 -67 -181 -81 -220 -13 -38 -40 -110 -58
-160 -19 -49 -79 -214 -134 -365 -211 -581 -266 -734 -371 -1020 -60 -162
-181 -495 -270 -740 -89 -245 -165 -454 -170 -465 -5 -11 -20 -54 -35 -95 -15
-41 -33 -91 -40 -110 -8 -19 -44 -118 -80 -220 -37 -102 -77 -212 -90 -245
-30 -82 -69 -189 -71 -195 0 -3 -4 -12 -7 -20 -6 -14 -202 -552 -245 -670 -11
-30 -66 -181 -122 -335 -239 -654 -220 -595 -196 -595 11 0 61 13 109 28 88
28 89 29 107 72 28 70 140 378 140 385 0 4 6 21 14 38 7 18 21 52 29 77 9 25
46 126 82 225 126 341 144 391 206 560 34 94 77 213 96 265 19 52 50 136 68
185 138 379 305 834 350 955 79 213 248 675 305 835 17 50 35 99 40 110 12 28
74 196 125 340 24 66 87 239 141 385 111 301 151 412 253 695 40 110 77 209
82 220 5 11 24 63 43 115 38 109 220 606 241 663 29 73 45 115 145 392 56 154
128 352 160 440 33 88 84 230 115 315 31 85 72 196 90 245 52 139 118 320 310
845 98 267 194 528 213 580 19 52 43 118 52 145 10 28 57 155 104 284 47 128
86 240 86 248 0 8 -9 35 -19 61 -11 26 -32 81 -46 122 -15 41 -31 78 -34 82
-4 4 -53 -119 -110 -274z"/>
</g>
</svg>
