<?xml version="1.0" encoding="utf-8"?>
<!-- Generator: Adobe Illustrator 27.7.0, SVG Export Plug-In . SVG Version: 6.00 Build 0)  -->
<svg version="1.1" id="Layer_1" xmlns="http://www.w3.org/2000/svg" xmlns:xlink="http://www.w3.org/1999/xlink" x="0px" y="0px"
	 viewBox="0 0 792 612" style="enable-background:new 0 0 792 612;" xml:space="preserve">
<g>
	<path d="M341.28,158.34c-0.16-0.34-0.22-0.79-0.48-1.02c-3.01-2.57-2.95-6.22-3.4-9.67c-0.63-4.87-2.44-9.6-1.66-14.65
		c0.25-1.63,0.3-3.32,1.05-4.8c2.5-4.9,2.34-10.51,4.34-15.57c2.32-5.84,4.54-11.84,8.11-16.91c4.98-7.08,10.45-13.83,16.79-19.9
		c5.58-5.33,12.28-8.78,18.9-12.07c8.63-4.29,18.01-5.26,27.32-1.18c2.07,0.91,4.28,1.45,6.34,2.47c2.86,1.42,5.06,3.4,6.46,6.25
		c0.6,1.22,1.41,1.83,2.83,2.09c2.89,0.53,4.53,2.92,6.4,4.9c1.11,1.18,3.43,8.72,5.47,8.68c2.25-0.05,3.76,0.59,3.86,3.27
		c0.04,1.1,0.78,2.19,1.29,3.24c2.48,5.15,5.43,10.22,6.51,15.82c2.19,11.33,5.36,22.63,3.34,34.39c-0.23,1.31-0.57,2.6-0.9,3.89
		c-0.21,0.81-0.58,1.46-1.62,1.31c-1.46-0.21-1.72,0.73-1.72,1.87c0,1.72-0.03,3.42,0.65,5.09c1.13,2.76,0.39,5.57-0.11,8.34
		c-0.25,1.38-0.71,2.73-1.06,4.1c-0.13,0.51-0.56,1.17-0.04,1.54c0.69,0.49,1.09-0.3,1.54-0.67c5.43-4.4,10.26-9.47,15.61-13.93
		c6.89-5.74,14.53-10.39,22.46-14.55c1.67-0.88,3.38-1.56,5.34-1.63c4.53-0.17,8.74-1.56,12.84-3.44c5.85-2.69,12.18-3.51,18.51-4
		c8.07-0.62,16.16-0.4,24.17,0.77c3.25,0.47,5.88,2.17,6.93,5.56c0.43,1.4,1.42,1.58,2.58,1.32c2.59-0.58,4.75,0.28,6.82,1.76
		c6.56,4.68,12.04,10.51,17.51,16.35c1.25,1.33,1.01,3.1,1.16,4.7c1.05,11,0.67,21.87-2.31,32.64c-1.47,5.33-1.71,11-5.07,15.73
		c-1.23,1.73-2.36,3.53-4.19,4.71c-0.77,0.5-1.33,1.19-1.36,2.09c-0.06,2.24-1.33,3.75-2.82,5.22c-4.74,4.65-9.67,8.98-16.34,10.68
		c-0.45,0.11-0.98,0.25-1.28,0.57c-2.96,3.11-6.2,5.86-10.63,7.79c1.89,0.71,3.17,0.17,4.44,0.05c3.91-0.35,7.85,0.09,11.76-0.4
		c2.04-0.26,4.05-0.5,5.9-1.44c0.94-0.47,2.05-0.55,2.45,0.46c0.75,1.89,2.37,1.95,3.91,2.48c6,2.06,11.89,4.45,17.93,6.37
		c6.54,2.08,12.68,4.93,18.54,8.47c3.05,1.84,5.88,3.88,7.98,6.81c0.74,1.02,1.74,1.81,2.82,2.46c6.91,4.2,10.63,10.32,11.41,18.38
		c1.26,13.05-2.18,24.74-9.36,35.63c-3.52,5.34-7.39,10.5-11.88,14.83c-5.17,4.98-21.7,14.02-29.4,15.43c-1.57,0.29-1.89-1.85-4-1
		c2.11-2.4,2.92-1.66,5-3c4.49-2.89,19.52-9.12,22.32-13.61c0.79-1.26,1.49-2.57,2.54-3.66c4.05-4.16,7.7-8.68,12.1-12.51
		c4.77-4.16,6.08-10.1,7.75-15.79c2-6.79,1.46-13.66,0.09-20.49c-0.66-3.29-1.3-3.89-4.85-4.24c-1.34-0.14-2.27-0.64-2.52-2
		c-0.31-1.71-1.32-2.95-2.4-4.23c-1.41-1.66-3.1-3.09-4.18-5.06c-0.52-0.95-1.56-1.48-2.57-1.97c-4.37-2.13-8.7-4.31-13.07-6.43
		c-0.7-0.34-1.15-0.84-1.43-1.48c-0.76-1.76-1.91-1.85-3.38-0.89c-1.62,1.06-3.16,0.92-4.83-0.06c-3.93-2.31-8.12-4.07-12.49-5.4
		c-0.67-0.2-1.32-0.51-1.91-0.89c-2.47-1.58-5.24-2.47-8.06-2.11c-7.73,0.98-15.5,0.83-23.24,1.31c-3.56,0.22-6.94,1.22-10.22,2.58
		c-4.28,1.77-8.64,3.26-13.28,3.92c-1.92,0.27-3.75,1.12-5.67,1.51c-1.51,0.31-3.24,0.71-3.94-1.39c-0.66-1.99,0.42-3.12,2.08-3.89
		c2.2-1.03,4.34-2.3,6.64-2.97c7.11-2.08,13.63-5.54,20.46-8.27c2.04-0.82,4.02-1.77,5.78-3.11c4.82-3.66,10.47-5.93,15.43-9.38
		c2.16-1.5,4.22-2.94,5.06-5.62c0.48-1.52,1.55-2.66,2.88-3.61c5.99-4.31,9.73-10.26,12.35-17.08c-3.87-0.41-3.79-0.39-2.35-4.14
		c2.39-6.2,3.06-12.78,3.99-19.29c0.4-2.78,0.3-5.63,0.42-8.45c0.04-0.96,0.09-2.17-0.9-2.49c-2.16-0.7-2.8-2.55-3.77-4.22
		c-2.41-4.13-4.87-8.23-7.3-12.35c-0.29-0.49-0.65-0.84-1.15-1.12c-5.86-3.27-11.71-6.57-17.58-9.84c-2.06-1.15-4.32-1.4-6.61-1.11
		c-3.27,0.42-6.52,0.93-9.79,1.4c-2.6,0.37-5.03,0.86-7.75-0.46c-2.35-1.14-5.25-0.17-7.89,0.18c-2.56,0.35-5.13,0.71-7.68,1.14
		c-2.56,0.43-5.03,1.11-7.27,2.56c-1.78,1.15-3.71,2-5.8,2.5c-4.5,1.08-8.28,3.68-12.23,5.92c-0.39,0.22-0.87,0.61-0.94,0.99
		c-0.71,3.94-4.26,4.66-7.04,6.13c-2.05,1.08-3.63,2.09-3.23,4.76c0.18,1.18-0.5,2.06-1.66,2.55c-2.35,1-4.31,2.56-5.95,4.5
		c-4.76,5.63-11.19,9.33-16.45,14.38c-2.94,2.82-5.6,5.95-9.18,8.03c-1.03,0.6-1.22,1.78-1.78,2.71c-0.45,0.73-0.9,1.48-1.48,2.11
		c-0.91,0.99-2.01,2.18-3.41,1.19c-1.39-0.98-1.84-2.64-0.97-4.2c1.22-2.18,2.69-4.23,4.03-6.34c0.8-1.25,1.66-2.44,0.84-4.11
		c-0.45-0.91,0.18-1.79,0.78-2.57c4.07-5.32,6-11.66,8.69-17.66c3.02-6.73,2.81-14.05,4.81-20.96c1.17-4.06,0.22-8.43,0.29-12.67
		c0.04-2.42-1.43-5.02-0.16-7.27c-0.39-1.2-0.37-1.84-0.46-2.35c-1.31-7.55-4.15-14.58-7.42-21.45c-0.75-1.58-1.79-2.77-3.72-2.72
		c-1.37,0.03-2.08-0.74-2.66-1.9c-3.92-7.79-8.76-14.82-16.3-19.64c-2.47-1.58-4.19-4.05-6.88-5.54c-2.43-1.35-4.75-2.63-7.5-3.15
		c-2.31-0.43-4.59-0.91-6.72-2.05c-2.63-1.41-5.28-0.63-7.24,1.13c-4.4,3.94-9.68,6.66-14.13,10.45
		c-5.05,4.32-10.59,8.07-15.19,12.9c-1.01,1.06-2.66,2.18-0.09,3.81c1.24,0.79-0.19,2.24-1.11,3.04c-1.48,1.28-3.18,2.32-4.56,3.7
		c-7.14,7.13-10.7,15.91-11.4,25.87c-0.55,7.81-1.7,15.57-1.14,23.47c0.38,5.43,1.35,10.72,2.41,16.03c0.35,1.77,0.43,3.39-0.2,5.25
		c-1.27,3.74,0.78,6.77,3.26,9.26c4.71,4.76,6.85,10.99,10.01,16.64c0.14,0.26,0.27,0.66,0.17,0.9c-1.36,3.33,0.84,5.44,2.6,7.71
		c0.34,0.43,0.65,0.89,0.93,1.36c0.28,0.49,0.47,1.04,0.03,1.53c-0.47,0.52-1,0.2-1.51,0c-3.33-1.37-5.44-3.98-6.82-7.14
		c-3.65-8.38-7.99-16.3-14.09-23.21c-1.9-2.15-3.34-4.74-4.86-7.21c-1.28-2.09-2.72-4.03-4.48-5.73c-1.7-1.64-3.33-3.28-4.19-5.59
		c-0.47-1.27-1.55-2.47-2.85-2.63c-5.09-0.61-8.87-4.6-14-5.13c-3.57-0.37-7.08-1.38-10.65-1.73c-8.11-0.78-16.24-1.39-24.38-1.91
		c-3.44-0.22-6.89,0.04-10.19,1.33c-1.22,0.48-2.52,0.47-3.38-0.79c-0.78-1.15-1.76-1.04-2.91-0.76c-2.64,0.64-4.92,2.06-7.23,3.36
		c-4.65,2.61-9.18,5.42-13.81,8.06c-1.58,0.9-2.34,2.51-3.59,3.65c-3.59,3.27-4.83,7.45-6,12.04c-2.01,7.86-3.25,15.69-1.95,23.7
		c1.94,11.97,7.21,22.14,17.18,29.46c2.91,2.13,5.95,4.08,8.94,6.09c1.12,0.75,2.33,1.36,3.69,1.42c2.32,0.12,3.17,1.51,3.04,3.58
		c-0.11,1.67,0.54,2.47,2.05,3.2c3.89,1.87,7.4,4.4,11.01,6.77c4.46,2.92,8.99,5.74,13.49,8.6c1.44,0.91,2.49,2.08,2.95,3.8
		c0.53,1.97,2.19,3.21,3.32,4.8c0.31,0.43,0.81,0.92,0.42,1.47c-0.4,0.57-1.02,0.24-1.51,0.04c-1.59-0.67-3.23-1.25-4.71-2.11
		c-5.26-3.07-10.72-5.42-16.87-6.13c-3.48-0.4-6.85-1.64-10.4-1.83c-1.13-0.06-2.16-0.08-2.38,1.23c-0.28,1.68-1.37,1.86-2.73,1.87
		c-3.77,0.03-7.53,0.15-11.3,0.15c-5-0.01-9.41,2.27-14.11,3.41c-3.77,0.91-7.55,2.03-11.58,1.24c-2.3-0.45-3.42,0.77-3.24,3.19
		c0.12,1.62-0.94,2.01-2.08,2.37c-2.69,0.84-5.37,1.79-8.12,2.39c-4.41,0.96-7.89,3.43-11.01,6.44c-4.06,3.9-8.38,7.58-11.21,12.61
		c-0.98,1.74-1.66,3.36-0.85,5.31c0.38,0.91,0.27,1.85,0.04,2.78c-1.07,4.25-1.87,8.58-3.34,12.73c-1.67,4.7-2.27,9.59-2.42,14.55
		c-0.04,1.23-0.02,2.45,1.5,3.12c1.54,0.68,0.89,2.25,0.7,3.36c-0.36,2.14,0.24,3.29,2.37,4.07c2.81,1.02,5.21,2.87,7.59,4.67
		c2.62,1.98,4.99,4.33,8.17,5.48c0.28,0.1,0.63,0.29,0.76,0.53c1.61,3.12,4.6,2.81,7.36,2.89c1.49,0.04,2.35,0.52,2.66,2.02
		c0.39,1.92,1.69,2.89,3.58,3.24c1.49,0.28,3.08,0.65,4.42,0.05c4.1-1.82,8.01-0.51,11.9,0.49c3.78,0.98,7.55,1.38,11.42,1.07
		c0.86-0.07,1.73-0.05,2.59,0.02c4.27,0.33,10.03-0.27,9.9,3.98c-0.04,1.4-5.78,3.5-6.78,3.56c-2.35,0.14-4.7,0.11-7.05,0.17
		c-3.7,0.09-7.62,0.17-10.94-1.07c-3.88-1.44-8.07-1.65-11.76-3.54c-2.15-1.1-4.32-1.37-6.59-0.54c-1.2,0.44-2.32,0.32-3.41-0.24
		c-6.63-3.38-13.1-7.07-19.88-10.16c-2.13-0.97-3.33-2.9-4.42-5.18c-1.27-2.65-3.35-5-5.12-7.45c-3.28-4.51-3.91-9.68-3.97-14.94
		c-0.05-3.83,0.52-7.66,1.46-11.41c0.46-1.83,0.69-3.67,0.36-5.59c-0.37-2.16,0.39-4.19,1.13-6.18c0.89-2.4,1.79-4.71,2.3-7.3
		c0.56-2.89,2.32-5.72,4.42-7.92c5.73-6.02,11.92-11.57,18.45-16.73c1.12-0.89,2.39-1.53,3.81-1.76c9.12-1.49,17.68-4.75,26.17-8.24
		c3.61-1.49,7.32-2.85,11.39-1.46c1.3,0.44,2.7,0.3,3.03-1.57c0.16-0.92,0.92-1.13,1.74-1.29c6.77-1.36,13.51-2.94,20.5-2.29
		c0.38,0.04,0.85,0.22,1.05-0.22c0.24-0.54-0.17-0.88-0.59-1.11c-6.65-3.51-11.67-9.45-18.72-12.42c-1.87-0.79-3.58-2.17-4.68-4.14
		c-0.59-1.05-1.64-1.89-2.59-2.69c-4.27-3.62-8.13-7.49-10.73-12.62c-1.5-2.96-4.03-5.39-5.74-8.3c-0.44-0.74-0.98-1.45-1.02-2.35
		c-0.29-7.6-1-15.17-0.91-22.79c0.07-6.03,2.48-11.27,4.97-16.5c1.48-3.11,3.12-6.15,4.85-9.13c2.41-4.14,5.16-7.85,10.61-8.25
		c1.97-0.14,3.59-1.53,5.18-2.65c4.59-3.25,9.28-5.82,15.18-6.18c5.69-0.34,11.34-1.57,17.1-1.23c1.57,0.09,8.37-0.91,9.6-0.8
		c5.9,0.52,11.62,1.57,16.88,4.57c6.06,3.47,12.33,6.33,19.41,7.23c3.87,0.49,7.28,2.41,10.11,5.17c0.77,0.75,1.57,1.25,2.64,1.39
		C338.11,157.05,339.79,157.29,341.28,158.34z"/>
	<path d="M333.45,418.34c-3.92,2.66-7.64,5.5-10.71,9.09c-3.51,4.11-6.84,8.41-11,11.91c-3.1,2.61-10.91,6.23-13.71,7.4
		c-2.6,1.09-5.16,2.27-7.69,3.53c-4.35,2.16-8.89,3.47-13.77,3.52c-1.5,0.01-2.97,0.2-4.36,0.82c-0.36,0.16-0.96,0.23-1.04,0.47
		c-1.1,3.34-4.7,3.23-6.84,5.05c-4.78,4.07-10.55,3.91-16.22,4.23c-1.79,0.1-3.59-0.08-5.26-0.99c-0.93-0.51-2.03-0.56-2.89,0.19
		c-1.98,1.72-4.28,1.43-6.49,0.94c-5.28-1.18-9.44-4.29-11.69-9.07c-1.24-2.63-2.34-5.18-4.39-7.25c-0.11-0.11-0.21-0.26-0.23-0.41
		c-0.36-3.63-2.58-6.77-2.69-10.48c-0.24-7.63-0.09-15.33,1.74-22.69c1.76-7.07,4.31-14.01,9.41-19.69
		c6.83-7.61,11.98-16.47,17.72-24.88c1.85-2.72,4.58-4.15,7.3-5.93c-1.09-1.1-2.37-1.12-3.55-1.35c-1.3-0.24-1.88-0.88-1.77-2.26
		c0.1-1.3,0.62-2.07,1.94-2.2c5.73-0.55,11.33-1.52,16.53-4.19c1.45-0.74,2.94-0.73,4.47,0.2c1.04,0.63,2.35,0.82,3.55,1.19
		c1,0.31,0.97,1.11,0.97,1.9c0,0.92-0.55,1.2-1.38,1.2c-0.54,0-1.15-0.04-1.62,0.17c-11.33,5.1-21.63,11.62-27.71,22.89
		c-2.45,4.54-5.21,8.73-8.61,12.52c-3.48,3.87-6.42,8.11-9.19,12.49c-3.93,6.23-4.69,13.22-4.8,20.33
		c-0.07,4.47,0.23,8.94,0.32,13.41c0.04,1.66,0.65,2.96,1.78,4.19c5.16,5.63,11.41,9.51,18.63,11.86c1.85,0.6,3.6,0.51,4.89-1.17
		c0.97-1.26,2.25-1.66,3.74-1.49c4.4,0.48,8.55-0.44,12.66-1.98c3.26-1.22,6.58-1.75,10.12-0.74c1.75,0.5,3.97,0.91,4.87-1.75
		c0.28-0.83,1.09-0.74,1.8-0.75c3.97-0.04,7.16-1.29,10.29-4.15c5.01-4.57,10.56-8.65,16.99-11.22c2.13-0.85,4.09-1.99,5.83-3.48
		c7.23-6.17,14.96-11.81,20.78-19.5c1.05-1.39,1.97-2.83,2.8-4.34c0.92-1.69,2.17-3.06,3.74-4.15c0.38-0.27,0.79-0.67,1.2-0.69
		c2.7-0.16,5.44,0.54,8.01-1.19c0.7-0.47,0.93,0.89,0.55,1.47c-3.15,4.91-4.84,10.53-7.66,15.58c-3.38,6.05-5.71,12.5-8.25,18.91
		c-2.01,5.06-1.54,10.23-2.11,15.34c-0.57,5.13-0.28,10.34,1.04,15.42c0.47,1.82,0.77,3.68,1.11,5.53c0.28,1.49,0.25,2.83-1.66,3.27
		c-0.85,0.2-1.02,0.89-0.78,1.68c0.11,0.38,0.19,0.77,0.36,1.12c3.7,7.78,6.48,15.99,10.96,23.41c0.36,0.59,0.81,1.3,0.77,1.93
		c-0.21,2.97,1.67,4.56,3.55,6.43c2.66,2.66,6.07,4.82,6.97,8.94c0.23,1.08,1.44,1.33,2.39,1.7c5.06,2,10.34,1.72,15.57,1.29
		c3.89-0.32,7.8-0.78,11.57-1.93c1.36-0.42,2.13,0.06,2.23,1.51c0.04,0.55,0.01,1.1,0.1,1.64c0.08,0.51,0.02,1.19,0.73,1.31
		c0.51,0.09,0.9-0.25,1.11-0.71c0.91-1.97,2.56-2.58,4.59-2.63c0.53-0.01,1.09-0.19,1.57-0.43c8.07-4.03,15.72-8.7,22.51-14.7
		c0.64-0.56,0.86-1.27,1.05-2.04c0.72-3,1.92-5.8,3.6-8.38c3.15-4.86,5.43-10.05,6.37-15.8c0.21-1.31,0.54-2.62,1.26-3.77
		c2.37-3.79,2.72-8.12,3.33-12.38c0.1-0.7,0.24-1.55-0.25-2.05c-2.28-2.38-1.22-5.01-0.2-7.24c4-8.72,2.66-17.45,0.48-26.22
		c-0.59-2.4,1.59-7.71,3.88-8.48c1.38-0.47,3.03-0.27,3.44,1.45c0.69,2.94,2.48,4.92,4.68,6.82c2.07,1.79,3.58,4.14,5.38,6.21
		c4.69,5.37,9.56,10.58,14.38,15.84c1.27,1.39,2.74,2.63,1.95,4.89c-0.38,1.09,0.45,1.33,1.36,1.31c1.27-0.03,2.25,0.52,3.07,1.46
		c3.26,3.74,7.31,6.41,11.86,8.27c5.73,2.33,11.22,5.25,17.17,7.07c2.79,0.85,5.55,1.8,8.5,1.61c1.65-0.11,2.16,0.51,1.8,2.03
		c-0.2,0.84-0.36,1.46,0.99,1.45c9.41-0.05,18.82,0.01,28.24-0.03c3.35-0.01,6.78,0.34,9.84-1.57c0.53-0.33,2.71-0.61,3.65-1.38
		c0.81-0.66,0.21-2.64,0.97-3.51c0.3-0.35,0.71-0.61,1.09-0.88c11.95-8.35,16.74-20.04,15.96-34.31c-0.07-1.27-0.23-2.59-0.92-3.62
		c-2.68-3.99-2.93-8.71-4.1-13.14c-0.21-0.79-0.23-1.46-1.27-1.65c-1.06-0.2-1.35-1.22-1.68-2.1c-1.71-4.55-3.61-9.02-5.4-13.53
		c-2.5-6.34-6.71-11.47-10.81-16.71c-0.45-0.57-0.98-0.95-1.82-0.73c-2.25,0.58-3.94-0.5-5.49-1.95c-2.19-2.05-4.09-4.35-5.7-6.86
		c-1.52-2.37-3.5-4.22-5.79-5.76c-3.58-2.4-7.24-4.7-10.84-7.07c-2.18-1.44-4.44-2.65-7.06-3.07c-0.69-0.11-1.53-0.16-1.39-1.18
		c0.11-0.87,0.79-1.2,1.56-1.01c1.94,0.47,1.95-0.54,1.6-1.93c-0.12-0.46-0.12-0.95-0.29-1.38c-0.75-1.86-0.03-2.3,1.84-2.63
		c5.63-0.97,11.19-0.62,16.81,0.05c6.15,0.74,12.15-1.27,18.25-1.47c6.01-0.19,11.98-1.52,18.06-0.37c2.75,0.52,5.01-1.58,7.5-2.47
		c1.92-0.69,3.84-1.38,5.8-1.92c2.13-0.59,2.73-0.06,2.58,2.18c-0.14,2.14-1.18,3.83-3.21,4.49c-5.73,1.88-11.51,3.58-17.39,4.94
		c-1.4,0.33-2.68,0.46-4.12-0.11c-1.96-0.78-4.02-0.31-6.01,0.22c-0.45,0.12-1.03,0.26-1.09,0.78c-0.33,2.54-2.39,2.45-4.11,2.57
		c-2.97,0.19-5.96,0.13-8.94,0.22c-0.93,0.03-1.92,0.01-2.78,0.31c-1.43,0.5-2.9,1.4-3.25,2.83c-0.35,1.42,1.11,2.3,2.2,3.05
		c5.3,3.61,10.46,7.48,16.41,10.03c0.98,0.42,1.38,1.01,1.23,1.97c-0.44,2.84,1.33,4.53,3.4,5.65c5.94,3.21,8.97,8.58,11.25,14.54
		c0.93,2.42,1.77,4.85,3.13,7.08c3.4,5.55,4.3,11.98,5.51,18.11c2.2,11.15,2.78,22.44-2.4,33.16c-2.9,6-5.95,12.01-10.3,17.05
		c-4.05,4.68-9.3,7.87-15.79,8.28c-4.5,0.29-8.81,1.41-13.07,2.85c-3.22,1.09-6.59,1.11-9.72-0.08c-4.45-1.69-9.02-2.6-13.71-3.11
		c-12.27-1.34-23.04-6.24-33.27-13.04c-6.44-4.29-11.7-9.59-16.86-15.16c-1.01-1.09-1.32-2.41-1.37-3.89
		c-0.11-3.11-1.59-4.16-4.48-3.21c-1.35,0.45-2.1-0.39-2.87-1.12c-3.4-3.2-5.94-7.06-8.25-11.09c-0.88-1.54-1.54-3.24-3.25-4.85
		c0.42,3.01,0.65,5.58,0.67,8.19c0.08,9.19-2.56,18.13-2.3,27.37c0.11,3.83-0.95,7.78-2.35,11.46c-2.81,7.39-5.61,14.79-8.62,22.1
		c-1.35,3.3-4.14,5.66-6.33,8.41c-3.69,4.63-7.82,8.7-12.87,11.8c-10.02,6.14-20.64,9.86-32.66,9.34
		c-6.32-0.27-12.47-1.19-18.61-2.43c-4.37-0.88-7.63-3.88-11.31-6.09c-0.58-0.35-0.65-0.78-0.33-1.38c0.94-1.77,0.11-3.31-1.05-4.46
		c-2.27-2.26-3.67-5.3-6.49-7.07c-0.74-0.47-1.19-1.36-1.16-2.23c0.07-2.85-1.29-5.12-2.82-7.33c-0.58-0.84-0.91-1.75-0.4-2.64
		c0.91-1.61,0.34-3.01-0.33-4.47c-0.88-1.92-1.73-3.86-2.58-5.8c-0.19-0.43-0.5-0.94-0.41-1.33c0.82-3.59-0.98-6.14-2.85-8.98
		c-1.45-2.21-1.53-5.23-1.57-7.99c-0.01-0.37,0.11-0.99,0.33-1.07c2.49-0.94,1.54-2.88,1.38-4.58c-0.26-2.75-0.29-5.5,0.25-8.21
		c0.62-3.1,0.86-6.22,0.71-9.36c-0.42-9.04,2.06-17.2,7.37-24.51C333.22,418.91,333.32,418.61,333.45,418.34z"/>
	<path d="M408.08,416.14c-5.38,0.21-12-1.32-18.71-1.96c-2.79-0.27-5.32-1.29-7.72-2.63c-0.79-0.44-1.59-0.63-2.44-0.76
		c-4.23-0.67-8.18-2.04-11.9-4.2c-2.57-1.49-5.19-2.92-8.04-3.87c-5.1-1.69-8.61-5.62-12.43-9.09c-1.47-1.33-3.02-2.48-4.81-3.34
		c-4.67-2.24-8.8-5.16-11.6-9.65c-1.58-2.54-4.07-4.09-6.25-5.97c-3.85-3.32-7.92-6.4-11.32-10.22c-0.47-0.52-1.05-1.07-1.23-1.7
		c-0.6-2.06-1.89-3.1-3.99-3.39c-0.95-0.13-1.7-0.81-2.06-1.77c-1.48-3.96-3.08-7.89-4.38-11.91c-1.1-3.4-1.46-6.91,0.45-10.24
		c0.56-0.98-0.14-1.25-0.83-1.5c-1.69-0.6-2.36-1.91-2.65-3.57c-1.08-6.18-2.44-12.31-2.43-18.64c0-1.79-0.24-3.61-0.6-5.37
		c-2.02-10.03-0.99-20.07,0.68-29.94c1.03-6.05,4.86-11.14,8.49-16.11c1.85-2.53,3.64-5.11,5.46-7.66c1.41-1.97,2.85-3.8,5.76-3.03
		c1.32,0.35,1.86-0.74,2.05-1.76c0.41-2.2,1.72-3.83,3.13-5.43c4.63-5.24,9.35-10.36,15.69-13.67c1.34-0.7,2.6-1.36,4.13-1.5
		c2.18-0.2,3.52-1.45,3.57-3.65c0.06-2.44,1.4-3.88,3.32-5.02c7.73-4.62,15.94-8,24.74-10.05c4.65-1.08,9.11-3.01,13.86-3.65
		c8.69-1.17,17.38-2.62,26.19-1.1c0.08,0.01,0.16,0.04,0.23,0.02c7.13-1.2,13.05,1.98,19.15,4.97c5.39,2.64,11.47,3.68,16.73,6.8
		c7.56,4.48,15,9.11,21.65,14.92c1.32,1.15,2.4,2.44,3.08,4.09c0.5,1.23,1.24,2.25,2.5,2.99c1.69,1.01,2.41,2.93,2.96,4.68
		c2.18,6.98,5.79,13.3,10.01,19.07c3.96,5.43,4.8,11.47,5.52,17.64c0.35,3.01,1.04,5.88,2.06,8.63c1.36,3.68,2.52,7.43,3.93,11.08
		c0.97,2.5,0.78,4.92,0.01,7.36c-0.26,0.83-0.61,1.61-0.39,2.51c1.81,7.63,0.39,14.98-2.09,22.18c-0.94,2.74-1.83,5.3-0.1,8.08
		c0.68,1.1,0.42,2.54-0.3,3.61c-6.61,9.93-9.77,21.77-17.29,31.2c-2.74,3.43-5.39,6.94-8.08,10.41c-0.84,1.09-1.96,1.94-3.21,2.3
		c-2.64,0.76-4.54,2.46-6.26,4.4c-4.33,4.9-9.92,8.13-15.27,11.68c-0.45,0.3-0.97,0.65-1.48,0.7c-4.87,0.48-8.68,3.47-12.94,5.41
		c-1.68,0.76-2.82,1.87-3.03,3.84c-0.21,1.97-1.32,2.95-3.42,3.14C420.61,416.02,415.07,416.61,408.08,416.14z M299.41,312.74
		c-0.56,2.84,0.56,5.9,1.65,9.17c1.35,4.03,2.53,8.17,3.17,12.47c1.02,6.9,2.53,13.74,6.59,19.67c3.33,4.86,7.03,9.36,11.57,13.18
		c4.91,4.14,9.7,8.37,15.31,11.64c3.41,1.99,7.49,3.57,8.68,8.11c0.1,0.38,0.58,0.73,0.97,0.97c1.82,1.11,3.34,2.59,5,3.9
		c4.53,3.59,9.25,6.92,14.44,9.5c2.53,1.26,5.42,1.37,8.07,2.43c4.66,1.86,9.43,3.21,14.65,2.67c4.59-0.47,9.24-0.46,13.74,1.08
		c1.72,0.59,3.55,0.55,5.36,0.5c7.52-0.21,14.78-2.27,21.86-4.28c7.96-2.25,15.56-6,21.91-11.75c3.48-3.15,7.17-6.05,11.21-8.51
		c2.73-1.66,5.4-3.61,7.31-6.22c2.44-3.34,4.66-6.8,7.42-9.93c3.58-4.07,6.05-8.97,8.74-13.64c3.55-6.17,5.9-12.8,5.01-20.17
		c-0.23-1.89-0.02-3.83,0.61-5.58c2.3-6.45,2.39-13.31,2.89-19.93c0.68-8.88-0.39-17.85-4.33-26.18c-1.67-3.52-3.33-7.11-2.98-11.23
		c0.11-1.27-0.6-2.41-1.26-3.5c-3.5-5.76-7.01-11.52-10.5-17.28c-1.1-1.81-1.97-3.71-2.58-5.77c-0.92-3.08-1.65-6.36-5-7.98
		c-0.6-0.29-1.04-0.94-1.54-1.44c-4.26-4.35-8.89-8.37-14.67-10.33c-7.87-2.67-14.48-7.77-22.16-10.77
		c-4.07-1.59-8.03-3.42-12.27-4.62c-5.89-1.67-11.82-1.04-17.76-0.85c-7.08,0.24-14.07,0.79-20.59,4.07
		c-2.36,1.19-5.02,1.7-7.77,1.6c-2.46-0.09-4.78,0.64-7.06,1.58c-3.6,1.48-6.5,4.06-9.81,5.96c-6.12,3.52-11.98,7.33-17.42,11.84
		c-6.95,5.77-13.3,12.16-19.74,18.46c-0.85,0.83-1.59,1.77-1.96,2.9c-0.57,1.74-1.81,2.91-3.16,4c-9.19,7.46-13.47,17.24-13.7,28.93
		c-0.03,1.57,0.26,3.31-0.71,4.58c-2.81,3.64-1.97,7.57-0.63,11.19C299.05,306.16,299.45,309.06,299.41,312.74z"/>
	<path d="M428.92,275.11c0,3.53-0.09,7.03-1.79,10.29c-1.04,2-2.45,2.48-4.44,1.65c-2.53-1.05-4.69-2.66-6.14-4.94
		c-7.54-11.83-12.18-24.52-10.84-38.82c0.26-2.79,1-5.52,1.24-8.35c0.28-3.29,3.48-4.8,6.48-3.36c2.06,0.99,3.5,2.67,4.58,4.59
		C424.77,248.28,428.7,261.18,428.92,275.11z"/>
	<path d="M376.67,282.52c-0.05,3.13,0.04,6.27-0.56,9.38c-0.67,3.47-2.98,4.69-6.08,3.19c-2.94-1.42-5.06-3.72-6.64-6.48
		c-6.35-11.09-10.31-22.84-9.43-35.82c0.22-3.2,0.58-6.4,1.15-9.55c0.67-3.71,4.01-4.93,7.15-2.85c2.24,1.49,3.74,3.59,4.9,5.91
		C372.87,257.7,377.01,269.53,376.67,282.52z"/>
	<path d="M473.53,330.79c-2.27-0.3-5.3-0.24-8.12-1.31c-1.43-0.54-2.01-0.12-2.73,1.16c-7.2,12.88-16.7,23.63-29.35,31.44
		c-14.51,8.96-30.3,12.7-47.19,11.07c-12.22-1.18-23.65-5.32-34.38-11.31c-5.08-2.83-9.84-6.13-14.16-10.04
		c-0.29-0.26-0.6-0.51-0.87-0.79c-0.93-0.96-2.23-2.15-1.17-3.38c0.82-0.95,2.03,0.4,2.79,0.98c5.12,3.9,10.27,7.74,15.79,11.04
		c16.01,9.58,33.34,13.17,51.71,10.12c13.17-2.19,24.74-8.25,34.8-17.08c7.66-6.71,14.16-14.37,19.29-23.18
		c0.79-1.36,0.68-2.45-0.4-3.6c-1.07-1.14-2.06-2.36-2.95-3.64c-0.67-0.96-0.88-2.28,0.22-2.92c1.1-0.64,1.25,0.78,1.71,1.41
		c1.32,1.81,2.62,3.58,5.33,2.95c1.15-0.27,1.79,0.54,2.01,1.52c0.32,1.38,1.19,1.8,2.49,2.01c2.56,0.41,5.13,0.7,7.72,0.72
		c0.95,0.01,2.07-0.1,2.01,1.3c-0.05,1.17-0.93,1.53-1.99,1.52C475.46,330.79,474.84,330.79,473.53,330.79z"/>
	<path d="M340.89,336.64c-0.91,4.95-3,9.72-6.05,14.05c-1.5,2.13-2.42,4.75-5.01,6.01c-0.87,0.42-1.67,0.92-2.65,0.56
		c-0.58-0.21-1.21-0.46-1.35-1.18c-0.13-0.7,0.24-1.29,0.79-1.59c6.83-3.71,8.87-10.5,11.08-17.18c0.17-0.52,0.31-1.06,0.53-1.55
		c0.34-0.78,0.67-1.79,1.74-1.56C341.08,334.43,340.87,335.49,340.89,336.64z"/>
</g>
</svg>
