<?xml version="1.0" encoding="utf-8"?>
<!-- Generator: Adobe Illustrator 27.0.0, SVG Export Plug-In . SVG Version: 6.00 Build 0)  -->
<svg version="1.1" id="Layer_1" xmlns="http://www.w3.org/2000/svg" xmlns:xlink="http://www.w3.org/1999/xlink" x="0px" y="0px"
	 viewBox="0 0 221.33 47.72" style="enable-background:new 0 0 221.33 47.72;" xml:space="preserve">
<path d="M36.53,28.1c-0.02-1.85-0.39-4.22-1.45-6.58c-1.07-2.35-2.81-3.88-4.75-4.99s-4.98-1.79-6.49-2.08
	c-1.51-0.29-3.43-0.67-4.5-1.29c-1.07-0.62-1.26-0.99-1.82-2.01c-0.56-1.03-0.36-3.01-0.27-3.35c0.08-0.34,0.28-1.28,1.58-1.32
	c1.31-0.04,3.39,0.71,4.15,0.82c0.75,0.11,1.86,0.52,3.26-0.67c1.4-1.19,1.22-4.07,1.22-4.07v0c-0.39,1.85-1.33,2.16-3.11,2.12
	c-1.78-0.04-2.33-0.22-4.42-0.67c-2.09-0.46-3.28,0.01-3.54,0.08c-0.26,0.07-1.64,0.61-2.42,2.09c-0.78,1.48-0.77,3.28-0.72,3.99
	c0.05,0.71,0.25,2.27,1.26,3.62c0.96,1.29,1.16,1.52,1.27,1.71c-0.87,0.49-2.48,1.22-3.82,2.35c-1.41,1.2-2.61,2.93-3.13,4.57
	c-0.52,1.64-0.8,2.55-0.87,5.11s0.53,5.13,0.92,6.68c0.39,1.55,1.7,4.25,2.87,5.73c1.17,1.49,3.04,3.45,6.42,4.69
	c3.38,1.24,7.56,0.13,9.54-0.82c1.98-0.95,4.47-2.66,5.69-4.38c1.22-1.72,2.16-3.53,2.71-5.72C36.66,31.52,36.55,29.95,36.53,28.1z
	 M31.92,32.58c-0.26,1.09-0.55,3.19-2.53,6.35c-1.97,3.16-4.42,4.73-7.34,4.7s-5.51-2.09-7-4.01c-1.49-1.92-2.23-3.64-2.96-5.87
	c-0.74-2.23-0.75-4.84-0.74-5.8c0.01-0.96,0.12-2.96,0.9-4.92c0.78-1.96,1.38-2.8,2.31-4.06c0.93-1.26,1.4-1.7,1.98-2.16
	c0.2-0.16,0.36-0.28,0.5-0.38c0.63,0.32,1.67,0.77,5.04,1.52c3.91,0.88,5.57,2.11,6.67,2.87c1.09,0.77,2.95,2.86,3.48,5.56
	C32.78,29.08,32.18,31.49,31.92,32.58z"/>
<g>
	<path d="M19.7,17.82c-0.12-0.03-0.24-0.06-0.35-0.1l-6.34,17.34c0.07,0.17,0.13,0.34,0.2,0.51L19.7,17.82z"/>
	<path d="M14.93,38.72l7.41-20.26c-0.12-0.03-0.23-0.06-0.35-0.08c0,0,0,0-0.01,0l-7.3,19.98C14.76,38.48,14.85,38.6,14.93,38.72z"
		/>
	<path d="M16.97,41l7.96-21.76c-0.11-0.04-0.22-0.08-0.34-0.12l-7.91,21.63C16.78,40.83,16.87,40.92,16.97,41z"/>
	<path d="M19.29,42.52l8.08-22.1c-0.1-0.06-0.21-0.12-0.32-0.19l-8.09,22.13C19.07,42.42,19.18,42.47,19.29,42.52z"/>
	<path d="M21.92,43.19l7.68-21.01c-0.09-0.1-0.19-0.2-0.28-0.29l-7.78,21.28C21.67,43.18,21.79,43.18,21.92,43.19z"/>
	<path d="M25.02,42.56l6.39-17.47c-0.06-0.16-0.13-0.32-0.21-0.48l-6.63,18.15C24.72,42.69,24.87,42.63,25.02,42.56z"/>
</g>
<g>
	<path d="M58.98,9.31h2.84l-12.49,29.1h-2.84L58.98,9.31z"/>
	<path d="M68.32,20.47c0.56-0.39,1.1-0.67,1.62-0.84c0.52-0.17,1.25-0.3,2.2-0.39h0.96c1.24,0,2.43,0.43,3.57,1.28l0.03-0.41
		l-0.02-1.14l0.07-1.83c0-1.92-0.15-3.14-0.45-3.66c-0.17-0.31-0.47-0.47-0.9-0.5c-0.43-0.02-0.77-0.1-1.03-0.22v-0.82
		c0.22-0.07,0.5-0.1,0.84-0.11c0.34,0,1.01-0.12,2-0.35l0.58-0.12l1.69-0.39c0.34-0.08,0.55-0.12,0.63-0.12
		c0.06,0,0.15,0.01,0.27,0.03c0.07,0.24,0.1,0.42,0.1,0.53l-0.02,0.26v0.31c0,0.32,0.02,1.17,0.05,2.55v0.92l0.02,0.5l-0.02,0.85
		l0.05,1.78l-0.04,1.04c-0.02,0.46-0.03,1.17-0.03,2.15c0,0.16,0,0.3,0.02,0.43v0.63c-0.01,0.18-0.02,0.32-0.02,0.41
		c0,0.17,0.02,0.42,0.05,0.73v0.94l-0.02,0.36c-0.02,0.33-0.03,0.79-0.03,1.37c0,0.59,0.01,1.13,0.03,1.61
		c0.01,0.19,0.02,0.37,0.02,0.53v1.28c0,0.41,0.01,0.9,0.03,1.47c0.21,0.13,0.71,0.22,1.5,0.27c0.25,0.01,0.47,0.04,0.67,0.08
		c0.06,0.17,0.08,0.3,0.08,0.38c0,0.1-0.04,0.26-0.12,0.46c-0.47,0.11-0.96,0.2-1.47,0.26c-1.56,0.19-2.67,0.47-3.33,0.82
		c-0.32,0.18-0.54,0.27-0.67,0.27c-0.12,0-0.27-0.01-0.43-0.03c0.01-0.21,0.02-0.34,0.02-0.4c0-0.78-0.02-1.28-0.05-1.5
		c-0.17,0.09-0.38,0.21-0.63,0.36c-0.76,0.46-1.46,0.78-2.08,0.96c-0.63,0.18-1.34,0.27-2.15,0.27c-1.44,0-2.58-0.27-3.43-0.82
		c-1.26-0.8-2.14-1.75-2.62-2.87c-0.48-1.12-0.73-2.34-0.73-3.67C65.15,24.06,66.2,22.1,68.32,20.47z M73.59,31.76
		c0.24,0.02,0.44,0.03,0.62,0.03c0.38,0,0.78-0.08,1.21-0.23c0.43-0.16,0.88-0.39,1.36-0.69c0.01-0.38,0.02-0.61,0.02-0.7
		c0-3.61-0.05-5.79-0.15-6.53c-0.14-0.99-0.51-1.75-1.13-2.29s-1.36-0.8-2.24-0.8c-0.5,0-0.98,0.09-1.43,0.27
		c-0.45,0.18-0.82,0.44-1.1,0.79c-0.42,0.5-0.74,1.07-0.96,1.71c-0.3,0.89-0.45,1.72-0.45,2.49c0,1.85,0.39,3.27,1.18,4.26
		C71.3,31.05,72.32,31.62,73.59,31.76z"/>
	<path d="M84.61,24.51c0.3-0.97,0.56-1.61,0.79-1.93c0.64-0.93,1.32-1.67,2.04-2.19s1.38-0.87,1.96-1.04
		c0.75-0.22,1.36-0.33,1.83-0.33c1.07,0,1.94,0.08,2.6,0.25c0.66,0.17,1.21,0.4,1.66,0.71c0.64,0.44,1.15,0.89,1.54,1.35
		c0.39,0.46,0.7,0.99,0.95,1.6c0.25,0.61,0.38,1.36,0.4,2.24l-1.9-0.03c-0.52,0-1.67-0.05-3.45-0.15c-0.66-0.06-1.12-0.09-1.37-0.09
		c-0.08,0-0.7,0.01-1.85,0.03h-1.47c-0.02,0.16-0.03,0.3-0.03,0.41c0,0.61,0.07,1.24,0.22,1.91c0.15,0.67,0.37,1.26,0.67,1.76
		c0.3,0.51,0.66,0.95,1.1,1.31c0.44,0.37,0.89,0.63,1.36,0.79l0.99,0.33c0.88,0,1.46-0.03,1.76-0.09c0.55-0.11,1.03-0.26,1.44-0.44
		s0.92-0.48,1.51-0.9c0.41,0.3,0.75,0.56,1.03,0.8c-1,1.1-2.04,1.91-3.12,2.4c-1.08,0.5-2.28,0.74-3.61,0.74
		c-0.9,0-1.63-0.08-2.2-0.24c-0.76-0.21-1.45-0.52-2.07-0.94s-1.14-0.95-1.59-1.57c-0.44-0.63-0.77-1.27-0.99-1.93
		c-0.29-0.87-0.43-1.56-0.43-2.09C84.37,26.2,84.45,25.31,84.61,24.51z M94.54,23.78c-0.01-0.64-0.14-1.25-0.38-1.84
		c-0.24-0.58-0.61-1.04-1.11-1.36c-0.5-0.33-1.01-0.49-1.52-0.49c-0.76,0-1.45,0.34-2.07,1.01c-0.62,0.67-0.96,1.58-1.04,2.73
		l3.9,0.03c0.25,0,0.6-0.02,1.06-0.05c0.33-0.03,0.56-0.05,0.7-0.05C94.18,23.77,94.33,23.78,94.54,23.78z"/>
	<path d="M99.39,19.65l0.39-0.02l3.55,0.09l1.06,0.02l2.26-0.08h0.39c0.07,0.21,0.1,0.38,0.1,0.49c0,0.13-0.02,0.34-0.07,0.62
		c-0.22,0.03-0.47,0.07-0.75,0.1c-0.56,0.08-0.91,0.17-1.04,0.27c-0.1,0.07-0.15,0.14-0.15,0.22c0,0.19,0.07,0.43,0.22,0.72
		c0.07,0.11,0.23,0.49,0.48,1.11c0.1,0.27,0.29,0.68,0.56,1.23c0.85,1.77,1.46,3.14,1.83,4.12c0.22,0.58,0.39,1.01,0.53,1.28
		c0.8-1.84,1.66-4.17,2.58-7.02c0.24-0.74,0.38-1.34,0.41-1.8c-0.67-0.1-1.3-0.15-1.88-0.15h-0.21l-0.27-0.03
		c-0.02-0.2-0.03-0.39-0.03-0.57c0-0.27,0.04-0.47,0.14-0.61l0.6-0.05l1.49,0.02h0.84c0.51,0.05,1.05,0.07,1.61,0.07l1.37-0.07
		c0.11,0,0.27,0,0.48,0.02c0.01,0.2,0.02,0.37,0.02,0.49s-0.01,0.28-0.02,0.47c-1.16,0.27-1.96,0.53-2.41,0.77
		c-0.08,0.16-0.13,0.27-0.15,0.33l-0.07,0.15c-0.46,1.37-1.18,3.18-2.17,5.42l-1.85,4.47c-0.24,0.57-0.42,0.96-0.53,1.18
		c-0.19,0.39-0.36,0.72-0.5,1.01h-1.38c-0.45-0.76-0.91-1.69-1.38-2.79l-2.32-5.2c-0.57-1.38-1.22-2.83-1.95-4.36
		c-0.09-0.19-0.17-0.31-0.22-0.36c-0.92-0.25-1.45-0.44-1.59-0.58c-0.02-0.13-0.03-0.29-0.03-0.46
		C99.31,19.96,99.34,19.78,99.39,19.65z"/>
	<path d="M130.09,9.31h2.84l-12.49,29.1h-2.84L130.09,9.31z"/>
	<path d="M150.73,30.36l0.39,0.26c0.1,0.08,0.17,0.18,0.19,0.29l0.02,0.08c-0.27,1.01-0.63,1.71-1.08,2.09
		c-0.44,0.38-1,0.57-1.66,0.57c-0.67,0-1.25-0.18-1.73-0.55s-0.93-1.02-1.32-1.96c-0.49,0.87-1.18,1.52-2.07,1.96
		s-1.98,0.66-3.26,0.66c-1.19,0-2.06-0.25-2.62-0.74c-0.56-0.5-0.84-1.15-0.84-1.96c0-0.38,0.08-0.76,0.25-1.14
		c0.17-0.39,0.43-0.77,0.8-1.15c0.37-0.38,0.97-0.8,1.79-1.26c0.12-0.07,0.56-0.26,1.3-0.58l4.25-1.71
		c0.03-0.43,0.05-0.87,0.05-1.32c0-1.54-0.19-2.59-0.56-3.14c-0.23-0.34-0.63-0.51-1.2-0.51c-0.57,0-1.09,0.11-1.57,0.33
		s-0.83,0.5-1.04,0.84c-0.16,0.25-0.3,0.72-0.41,1.42c-0.08,0.5-0.15,0.79-0.22,0.87c-0.17,0.22-0.48,0.41-0.93,0.59
		s-0.75,0.3-0.91,0.38c-0.62,0.3-1.11,0.44-1.47,0.44c-0.16-0.14-0.24-0.33-0.24-0.58c0-0.65,0.14-1.21,0.41-1.67
		c0.41-0.66,1.03-1.3,1.85-1.92c0.83-0.62,1.6-1.06,2.32-1.31c0.98-0.32,2.18-0.48,3.59-0.48c0.91,0,1.69,0.17,2.35,0.5
		c0.66,0.34,1.11,0.83,1.37,1.5c0.26,0.66,0.38,1.85,0.38,3.57l-0.03,2.82l0.03,2.07v0.53c0,0.48,0.06,0.81,0.19,0.98
		c0.13,0.18,0.29,0.26,0.5,0.26c0.12,0,0.23-0.03,0.32-0.1l0.51-0.8L150.73,30.36z M145.13,26.4c-0.65,0.22-1.38,0.58-2.2,1.08
		c-0.82,0.51-1.38,1.02-1.7,1.53c-0.23,0.38-0.34,0.84-0.34,1.38c0,0.49,0.15,0.89,0.44,1.21c0.3,0.32,0.64,0.48,1.03,0.48
		c0.64,0,1.18-0.18,1.62-0.55c0.6-0.49,0.96-0.88,1.06-1.17c0.1-0.29,0.15-1.11,0.15-2.47C145.2,27.4,145.17,26.9,145.13,26.4z"/>
	<path d="M152.49,19.75c0.13-0.05,0.23-0.08,0.31-0.1h5.09l0.38,0.03l0.03,1.14l-0.05,1.67l0.02,0.87l-0.02,2.58v1.76
		c0,1.15,0.06,2.05,0.19,2.71c0.17,0.5,0.45,0.88,0.83,1.13s0.85,0.38,1.39,0.38c0.51,0,0.93-0.05,1.25-0.15
		c0.32-0.1,0.69-0.3,1.1-0.58c0.42-0.29,0.68-0.49,0.79-0.62c0.33-0.36,0.56-0.7,0.68-1.01l0.12-4.25c0.02-0.44,0.03-0.81,0.03-1.09
		c0-0.3-0.01-0.67-0.03-1.12c-0.02-0.45-0.03-0.7-0.03-0.76l0.02-0.63l-0.03-0.38c-0.27-0.17-0.66-0.28-1.15-0.32l-1.14-0.08
		c-0.07-0.03-0.13-0.07-0.19-0.12c-0.05-0.23-0.07-0.4-0.07-0.51c0-0.14,0.02-0.33,0.05-0.58c0.38-0.06,0.7-0.08,0.98-0.08
		l2.64,0.03c0.71,0,1.58-0.01,2.6-0.03l0.03,1.28l-0.07,1.64l0.03,2.05l-0.02,2.94l-0.03,1.31l0.02,0.89
		c-0.05,0.59-0.07,0.93-0.07,1.01c0,0.28,0.05,0.5,0.15,0.63c0.1,0.14,0.2,0.21,0.29,0.21l1.57-0.05l0.21,0.04
		c0.03,0.4,0.05,0.63,0.05,0.68c0,0.08-0.02,0.21-0.05,0.38c-0.6,0.02-1.04,0.06-1.3,0.12c-1.22,0.27-2.55,0.68-4,1.21l-0.68-0.04
		l-0.02-2.79c-0.14,0.11-0.34,0.29-0.6,0.53c-1,0.89-1.86,1.49-2.58,1.8c-0.72,0.31-1.47,0.47-2.26,0.47
		c-0.93,0-1.74-0.19-2.43-0.58s-1.19-0.87-1.5-1.43c-0.24-0.44-0.4-1.08-0.48-1.91c-0.02-0.22-0.04-1.33-0.04-3.34l0.02-0.55
		c0.06-1.12,0.09-1.94,0.09-2.47c0-0.91-0.02-1.52-0.05-1.83c-0.01-0.15-0.07-0.32-0.17-0.51c-0.16-0.07-0.35-0.12-0.56-0.15
		c-0.73-0.13-1.18-0.25-1.37-0.36c-0.06-0.03-0.08-0.11-0.08-0.22c0-0.07,0.01-0.16,0.03-0.27
		C152.45,20.2,152.47,20.01,152.49,19.75z"/>
	<path d="M175.53,20.47c0.56-0.39,1.1-0.67,1.62-0.84c0.52-0.17,1.25-0.3,2.2-0.39h0.96c1.24,0,2.43,0.43,3.57,1.28l0.03-0.41
		l-0.02-1.14l0.07-1.83c0-1.92-0.15-3.14-0.45-3.66c-0.17-0.31-0.47-0.47-0.9-0.5c-0.43-0.02-0.77-0.1-1.03-0.22v-0.82
		c0.22-0.07,0.5-0.1,0.84-0.11c0.34,0,1.01-0.12,2-0.35l0.58-0.12l1.69-0.39c0.34-0.08,0.55-0.12,0.63-0.12
		c0.06,0,0.15,0.01,0.27,0.03c0.07,0.24,0.1,0.42,0.1,0.53l-0.02,0.26v0.31c0,0.32,0.02,1.17,0.05,2.55v0.92l0.02,0.5l-0.02,0.85
		l0.05,1.78l-0.04,1.04c-0.02,0.46-0.03,1.17-0.03,2.15c0,0.16,0,0.3,0.02,0.43v0.63c-0.01,0.18-0.02,0.32-0.02,0.41
		c0,0.17,0.02,0.42,0.05,0.73v0.94l-0.02,0.36c-0.02,0.33-0.03,0.79-0.03,1.37c0,0.59,0.01,1.13,0.03,1.61
		c0.01,0.19,0.02,0.37,0.02,0.53v1.28c0,0.41,0.01,0.9,0.03,1.47c0.21,0.13,0.71,0.22,1.5,0.27c0.25,0.01,0.47,0.04,0.67,0.08
		c0.06,0.17,0.08,0.3,0.08,0.38c0,0.1-0.04,0.26-0.12,0.46c-0.47,0.11-0.96,0.2-1.47,0.26c-1.56,0.19-2.67,0.47-3.33,0.82
		c-0.32,0.18-0.54,0.27-0.67,0.27c-0.12,0-0.27-0.01-0.43-0.03c0.01-0.21,0.02-0.34,0.02-0.4c0-0.78-0.02-1.28-0.05-1.5
		c-0.17,0.09-0.38,0.21-0.63,0.36c-0.76,0.46-1.46,0.78-2.08,0.96c-0.63,0.18-1.34,0.27-2.15,0.27c-1.44,0-2.58-0.27-3.43-0.82
		c-1.26-0.8-2.14-1.75-2.62-2.87c-0.48-1.12-0.73-2.34-0.73-3.67C172.35,24.06,173.41,22.1,175.53,20.47z M180.79,31.76
		c0.24,0.02,0.44,0.03,0.62,0.03c0.38,0,0.78-0.08,1.21-0.23c0.43-0.16,0.88-0.39,1.36-0.69c0.01-0.38,0.02-0.61,0.02-0.7
		c0-3.61-0.05-5.79-0.15-6.53c-0.14-0.99-0.51-1.75-1.13-2.29s-1.36-0.8-2.24-0.8c-0.5,0-0.98,0.09-1.43,0.27
		c-0.45,0.18-0.82,0.44-1.1,0.79c-0.42,0.5-0.74,1.07-0.96,1.71c-0.3,0.89-0.45,1.72-0.45,2.49c0,1.85,0.39,3.27,1.18,4.26
		C178.5,31.05,179.53,31.62,180.79,31.76z"/>
	<path d="M190.89,33.58l-0.03-1.11l1.93-0.26c0.29-0.08,0.48-0.2,0.59-0.35c0.11-0.15,0.16-0.5,0.16-1.03v-0.19
		c0-0.14,0.01-0.38,0.03-0.74c0.02-0.36,0.03-0.68,0.03-0.95c0-0.22-0.02-0.63-0.05-1.25l0.03-0.85l-0.03-0.8l0.05-2.79
		c0-0.35-0.03-0.72-0.1-1.09c-0.13-0.17-0.36-0.32-0.69-0.44c-0.33-0.12-0.91-0.22-1.74-0.27v-0.96c1.17-0.07,2.2-0.31,3.09-0.73
		c0.6-0.27,1.26-0.76,1.97-1.45h1.15c0.04,1.41,0.07,3.25,0.07,5.5l-0.12,6.97c0,0.48,0.02,0.91,0.07,1.3
		c0.35,0.13,0.93,0.25,1.73,0.38c0.31,0.05,0.55,0.1,0.74,0.17l-0.03,0.94c-0.31,0.01-0.53,0.02-0.68,0.02
		c-0.17,0-0.43-0.01-0.78-0.03c-1.16-0.06-2.71-0.09-4.66-0.09c-0.56,0-1.1,0.02-1.62,0.06C191.44,33.56,191.09,33.58,190.89,33.58z
		 M193.29,13.19c0-0.62,0.2-1.12,0.6-1.51c0.4-0.39,0.91-0.59,1.54-0.59c0.67,0,1.23,0.21,1.67,0.62c0.45,0.42,0.67,0.89,0.67,1.41
		c0,0.39-0.09,0.77-0.26,1.16c-0.18,0.39-0.46,0.7-0.84,0.93c-0.38,0.23-0.77,0.35-1.17,0.35c-0.55,0-1.05-0.23-1.51-0.7
		C193.52,14.4,193.29,13.84,193.29,13.19z"/>
	<path d="M215,21.12c0.73,0.71,1.27,1.52,1.63,2.43c0.36,0.92,0.54,1.78,0.54,2.59c0,1.53-0.23,2.76-0.7,3.69
		c-0.71,1.41-1.66,2.46-2.86,3.13c-1.2,0.67-2.59,1.01-4.17,1.01c-1.78,0-3.29-0.4-4.52-1.2c-1.24-0.8-2.12-1.7-2.65-2.72
		c-0.53-1.01-0.8-2.27-0.8-3.78c0-0.76,0.13-1.53,0.38-2.3c0.25-0.77,0.6-1.44,1.04-2.01c0.44-0.57,0.92-1.05,1.45-1.44
		c0.76-0.55,1.53-0.94,2.3-1.17c0.77-0.23,1.7-0.35,2.8-0.35C211.81,19.02,213.67,19.72,215,21.12z M205.66,27.02
		c0.1,1.41,0.18,2.23,0.22,2.45c0.15,0.76,0.38,1.42,0.7,1.97c0.22,0.35,0.58,0.67,1.08,0.94c0.5,0.27,1.1,0.41,1.79,0.41
		c0.83,0,1.53-0.27,2.1-0.8c0.57-0.53,0.98-1.36,1.23-2.49c0.16-0.74,0.24-1.96,0.24-3.64c0-2.08-0.34-3.54-1.03-4.41
		s-1.58-1.29-2.7-1.29c-0.88,0-1.6,0.25-2.18,0.74c-0.58,0.49-0.98,1.21-1.21,2.17C205.77,23.69,205.68,25,205.66,27.02z"/>
</g>
</svg>
