<?xml version="1.0" encoding="utf-8"?>
<!-- Generator: Adobe Illustrator 27.0.0, SVG Export Plug-In . SVG Version: 6.00 Build 0)  -->
<svg version="1.1" id="Layer_1" xmlns="http://www.w3.org/2000/svg" xmlns:xlink="http://www.w3.org/1999/xlink" x="0px" y="0px"
	 viewBox="0 0 221.3 47.7" style="enable-background:new 0 0 221.3 47.7;" xml:space="preserve">
<path d="M36.5,28.1c0-1.9-0.4-4.2-1.5-6.6c-1.1-2.4-2.8-3.9-4.8-5s-5-1.8-6.5-2.1s-3.4-0.7-4.5-1.3s-1.3-1-1.8-2
	c-0.6-1-0.4-3-0.3-3.3c0.1-0.3,0.3-1.3,1.6-1.3c1.3,0,3.4,0.7,4.1,0.8c0.8,0.1,1.9,0.5,3.3-0.7s1.2-4.1,1.2-4.1l0,0
	c-0.4,1.8-1.3,2.2-3.1,2.1S22,4.5,19.9,4c-2.1-0.5-3.3,0-3.5,0.1c-0.3,0.1-1.6,0.6-2.4,2.1s-0.8,3.3-0.7,4s0.2,2.3,1.3,3.6
	c1,1.3,1.2,1.5,1.3,1.7c-0.9,0.5-2.5,1.2-3.8,2.4c-1.4,1.2-2.6,2.9-3.1,4.6C8.3,24.1,8,25,8,27.5s0.5,5.1,0.9,6.7s1.7,4.2,2.9,5.7
	c1.2,1.5,3,3.5,6.4,4.7c3.4,1.2,7.6,0.1,9.5-0.8s4.5-2.7,5.7-4.4c1.2-1.7,2.2-3.5,2.7-5.7C36.7,31.5,36.5,30,36.5,28.1z M31.9,32.6
	c-0.3,1.1-0.5,3.2-2.5,6.3c-2,3.2-4.4,4.7-7.3,4.7s-5.5-2.1-7-4s-2.2-3.6-3-5.9c-0.7-2.2-0.8-4.8-0.7-5.8s0.1-3,0.9-4.9
	s1.4-2.8,2.3-4.1s1.4-1.7,2-2.2c0.2-0.2,0.4-0.3,0.5-0.4c0.6,0.3,1.7,0.8,5,1.5c3.9,0.9,5.6,2.1,6.7,2.9c1.1,0.8,3,2.9,3.5,5.6
	C32.8,29.1,32.2,31.5,31.9,32.6z"/>
<g>
	<path d="M19.7,17.8c-0.1,0-0.2-0.1-0.4-0.1L13,35.1c0.1,0.2,0.1,0.3,0.2,0.5L19.7,17.8z"/>
	<path d="M14.9,38.7l7.4-20.3c-0.1,0-0.2-0.1-0.4-0.1c0,0,0,0,0,0l-7.3,20C14.8,38.5,14.9,38.6,14.9,38.7z"/>
	<path d="M17,41l8-21.8c-0.1,0-0.2-0.1-0.3-0.1l-7.9,21.6C16.8,40.8,16.9,40.9,17,41z"/>
	<path d="M19.3,42.5l8.1-22.1c-0.1-0.1-0.2-0.1-0.3-0.2L19,42.4C19.1,42.4,19.2,42.5,19.3,42.5z"/>
	<path d="M21.9,43.2l7.7-21c-0.1-0.1-0.2-0.2-0.3-0.3l-7.8,21.3C21.7,43.2,21.8,43.2,21.9,43.2z"/>
	<path d="M25,42.6l6.4-17.5c-0.1-0.2-0.1-0.3-0.2-0.5l-6.6,18.1C24.7,42.7,24.9,42.6,25,42.6z"/>
</g>
<g>
	<path d="M59,9.3h2.8L49.3,38.4h-2.8L59,9.3z"/>
	<path d="M68.3,20.5c0.6-0.4,1.1-0.7,1.6-0.8c0.5-0.2,1.2-0.3,2.2-0.4h1c1.2,0,2.4,0.4,3.6,1.3l0-0.4l0-1.1l0.1-1.8
		c0-1.9-0.2-3.1-0.4-3.7c-0.2-0.3-0.5-0.5-0.9-0.5c-0.4,0-0.8-0.1-1-0.2v-0.8c0.2-0.1,0.5-0.1,0.8-0.1c0.3,0,1-0.1,2-0.4l0.6-0.1
		l1.7-0.4c0.3-0.1,0.6-0.1,0.6-0.1c0.1,0,0.2,0,0.3,0c0.1,0.2,0.1,0.4,0.1,0.5l0,0.3V12c0,0.3,0,1.2,0.1,2.6v0.9l0,0.5l0,0.8
		l0.1,1.8l0,1c0,0.5,0,1.2,0,2.1c0,0.2,0,0.3,0,0.4v0.6c0,0.2,0,0.3,0,0.4c0,0.2,0,0.4,0.1,0.7v0.9l0,0.4c0,0.3,0,0.8,0,1.4
		c0,0.6,0,1.1,0,1.6c0,0.2,0,0.4,0,0.5v1.3c0,0.4,0,0.9,0,1.5c0.2,0.1,0.7,0.2,1.5,0.3c0.2,0,0.5,0,0.7,0.1c0.1,0.2,0.1,0.3,0.1,0.4
		c0,0.1,0,0.3-0.1,0.5c-0.5,0.1-1,0.2-1.5,0.3c-1.6,0.2-2.7,0.5-3.3,0.8c-0.3,0.2-0.5,0.3-0.7,0.3c-0.1,0-0.3,0-0.4,0
		c0-0.2,0-0.3,0-0.4c0-0.8,0-1.3-0.1-1.5c-0.2,0.1-0.4,0.2-0.6,0.4c-0.8,0.5-1.5,0.8-2.1,1c-0.6,0.2-1.3,0.3-2.2,0.3
		c-1.4,0-2.6-0.3-3.4-0.8c-1.3-0.8-2.1-1.8-2.6-2.9c-0.5-1.1-0.7-2.3-0.7-3.7C65.2,24.1,66.2,22.1,68.3,20.5z M73.6,31.8
		c0.2,0,0.4,0,0.6,0c0.4,0,0.8-0.1,1.2-0.2c0.4-0.2,0.9-0.4,1.4-0.7c0-0.4,0-0.6,0-0.7c0-3.6-0.1-5.8-0.2-6.5
		c-0.1-1-0.5-1.8-1.1-2.3s-1.4-0.8-2.2-0.8c-0.5,0-1,0.1-1.4,0.3s-0.8,0.4-1.1,0.8c-0.4,0.5-0.7,1.1-1,1.7c-0.3,0.9-0.4,1.7-0.4,2.5
		c0,1.9,0.4,3.3,1.2,4.3C71.3,31,72.3,31.6,73.6,31.8z"/>
	<path d="M84.6,24.5c0.3-1,0.6-1.6,0.8-1.9c0.6-0.9,1.3-1.7,2-2.2s1.4-0.9,2-1c0.8-0.2,1.4-0.3,1.8-0.3c1.1,0,1.9,0.1,2.6,0.2
		c0.7,0.2,1.2,0.4,1.7,0.7c0.6,0.4,1.2,0.9,1.5,1.4c0.4,0.5,0.7,1,0.9,1.6s0.4,1.4,0.4,2.2l-1.9,0c-0.5,0-1.7,0-3.4-0.1
		c-0.7-0.1-1.1-0.1-1.4-0.1c-0.1,0-0.7,0-1.8,0h-1.5c0,0.2,0,0.3,0,0.4c0,0.6,0.1,1.2,0.2,1.9s0.4,1.3,0.7,1.8
		c0.3,0.5,0.7,1,1.1,1.3c0.4,0.4,0.9,0.6,1.4,0.8l1,0.3c0.9,0,1.5,0,1.8-0.1c0.6-0.1,1-0.3,1.4-0.4s0.9-0.5,1.5-0.9
		c0.4,0.3,0.8,0.6,1,0.8c-1,1.1-2,1.9-3.1,2.4C94.2,33.7,93,34,91.7,34c-0.9,0-1.6-0.1-2.2-0.2c-0.8-0.2-1.4-0.5-2.1-0.9
		s-1.1-1-1.6-1.6c-0.4-0.6-0.8-1.3-1-1.9c-0.3-0.9-0.4-1.6-0.4-2.1C84.4,26.2,84.4,25.3,84.6,24.5z M94.5,23.8
		c0-0.6-0.1-1.2-0.4-1.8c-0.2-0.6-0.6-1-1.1-1.4c-0.5-0.3-1-0.5-1.5-0.5c-0.8,0-1.4,0.3-2.1,1s-1,1.6-1,2.7l3.9,0c0.2,0,0.6,0,1.1,0
		c0.3,0,0.6,0,0.7,0C94.2,23.8,94.3,23.8,94.5,23.8z"/>
	<path d="M99.4,19.6l0.4,0l3.6,0.1l1.1,0l2.3-0.1h0.4c0.1,0.2,0.1,0.4,0.1,0.5c0,0.1,0,0.3-0.1,0.6c-0.2,0-0.5,0.1-0.8,0.1
		c-0.6,0.1-0.9,0.2-1,0.3c-0.1,0.1-0.2,0.1-0.2,0.2c0,0.2,0.1,0.4,0.2,0.7c0.1,0.1,0.2,0.5,0.5,1.1c0.1,0.3,0.3,0.7,0.6,1.2
		c0.8,1.8,1.5,3.1,1.8,4.1c0.2,0.6,0.4,1,0.5,1.3c0.8-1.8,1.7-4.2,2.6-7c0.2-0.7,0.4-1.3,0.4-1.8c-0.7-0.1-1.3-0.1-1.9-0.1h-0.2
		l-0.3,0c0-0.2,0-0.4,0-0.6c0-0.3,0-0.5,0.1-0.6l0.6,0l1.5,0h0.8c0.5,0,1.1,0.1,1.6,0.1l1.4-0.1c0.1,0,0.3,0,0.5,0
		c0,0.2,0,0.4,0,0.5s0,0.3,0,0.5c-1.2,0.3-2,0.5-2.4,0.8c-0.1,0.2-0.1,0.3-0.2,0.3l-0.1,0.1c-0.5,1.4-1.2,3.2-2.2,5.4l-1.8,4.5
		c-0.2,0.6-0.4,1-0.5,1.2c-0.2,0.4-0.4,0.7-0.5,1h-1.4c-0.4-0.8-0.9-1.7-1.4-2.8l-2.3-5.2c-0.6-1.4-1.2-2.8-1.9-4.4
		c-0.1-0.2-0.2-0.3-0.2-0.4c-0.9-0.2-1.4-0.4-1.6-0.6c0-0.1,0-0.3,0-0.5C99.3,20,99.3,19.8,99.4,19.6z"/>
	<path d="M130.1,9.3h2.8l-12.5,29.1h-2.8L130.1,9.3z"/>
	<path d="M150.7,30.4l0.4,0.3c0.1,0.1,0.2,0.2,0.2,0.3l0,0.1c-0.3,1-0.6,1.7-1.1,2.1c-0.4,0.4-1,0.6-1.7,0.6c-0.7,0-1.2-0.2-1.7-0.5
		s-0.9-1-1.3-2c-0.5,0.9-1.2,1.5-2.1,2s-2,0.7-3.3,0.7c-1.2,0-2.1-0.2-2.6-0.7c-0.6-0.5-0.8-1.1-0.8-2c0-0.4,0.1-0.8,0.2-1.1
		c0.2-0.4,0.4-0.8,0.8-1.1c0.4-0.4,1-0.8,1.8-1.3c0.1-0.1,0.6-0.3,1.3-0.6l4.2-1.7c0-0.4,0.1-0.9,0.1-1.3c0-1.5-0.2-2.6-0.6-3.1
		c-0.2-0.3-0.6-0.5-1.2-0.5c-0.6,0-1.1,0.1-1.6,0.3s-0.8,0.5-1,0.8c-0.2,0.2-0.3,0.7-0.4,1.4c-0.1,0.5-0.1,0.8-0.2,0.9
		c-0.2,0.2-0.5,0.4-0.9,0.6s-0.8,0.3-0.9,0.4c-0.6,0.3-1.1,0.4-1.5,0.4c-0.2-0.1-0.2-0.3-0.2-0.6c0-0.6,0.1-1.2,0.4-1.7
		c0.4-0.7,1-1.3,1.9-1.9c0.8-0.6,1.6-1.1,2.3-1.3c1-0.3,2.2-0.5,3.6-0.5c0.9,0,1.7,0.2,2.4,0.5c0.7,0.3,1.1,0.8,1.4,1.5
		c0.3,0.7,0.4,1.9,0.4,3.6l0,2.8l0,2.1v0.5c0,0.5,0.1,0.8,0.2,1c0.1,0.2,0.3,0.3,0.5,0.3c0.1,0,0.2,0,0.3-0.1l0.5-0.8L150.7,30.4z
		 M145.1,26.4c-0.6,0.2-1.4,0.6-2.2,1.1c-0.8,0.5-1.4,1-1.7,1.5c-0.2,0.4-0.3,0.8-0.3,1.4c0,0.5,0.1,0.9,0.4,1.2
		c0.3,0.3,0.6,0.5,1,0.5c0.6,0,1.2-0.2,1.6-0.5c0.6-0.5,1-0.9,1.1-1.2c0.1-0.3,0.1-1.1,0.1-2.5C145.2,27.4,145.2,26.9,145.1,26.4z"
		/>
	<path d="M152.5,19.8c0.1,0,0.2-0.1,0.3-0.1h5.1l0.4,0l0,1.1l-0.1,1.7l0,0.9l0,2.6v1.8c0,1.1,0.1,2,0.2,2.7c0.2,0.5,0.4,0.9,0.8,1.1
		s0.9,0.4,1.4,0.4c0.5,0,0.9,0,1.2-0.1s0.7-0.3,1.1-0.6c0.4-0.3,0.7-0.5,0.8-0.6c0.3-0.4,0.6-0.7,0.7-1l0.1-4.2c0-0.4,0-0.8,0-1.1
		c0-0.3,0-0.7,0-1.1s0-0.7,0-0.8l0-0.6l0-0.4c-0.3-0.2-0.7-0.3-1.1-0.3l-1.1-0.1c-0.1,0-0.1-0.1-0.2-0.1c-0.1-0.2-0.1-0.4-0.1-0.5
		c0-0.1,0-0.3,0.1-0.6c0.4-0.1,0.7-0.1,1-0.1l2.6,0c0.7,0,1.6,0,2.6,0l0,1.3l-0.1,1.6l0,2l0,2.9l0,1.3l0,0.9c-0.1,0.6-0.1,0.9-0.1,1
		c0,0.3,0.1,0.5,0.1,0.6c0.1,0.1,0.2,0.2,0.3,0.2l1.6,0l0.2,0c0,0.4,0.1,0.6,0.1,0.7c0,0.1,0,0.2-0.1,0.4c-0.6,0-1,0.1-1.3,0.1
		c-1.2,0.3-2.6,0.7-4,1.2l-0.7,0l0-2.8c-0.1,0.1-0.3,0.3-0.6,0.5c-1,0.9-1.9,1.5-2.6,1.8s-1.5,0.5-2.3,0.5c-0.9,0-1.7-0.2-2.4-0.6
		s-1.2-0.9-1.5-1.4c-0.2-0.4-0.4-1.1-0.5-1.9c0-0.2,0-1.3,0-3.3l0-0.5c0.1-1.1,0.1-1.9,0.1-2.5c0-0.9,0-1.5-0.1-1.8
		c0-0.1-0.1-0.3-0.2-0.5c-0.2-0.1-0.4-0.1-0.6-0.1c-0.7-0.1-1.2-0.2-1.4-0.4c-0.1,0-0.1-0.1-0.1-0.2c0-0.1,0-0.2,0-0.3
		C152.4,20.2,152.5,20,152.5,19.8z"/>
	<path d="M175.5,20.5c0.6-0.4,1.1-0.7,1.6-0.8c0.5-0.2,1.2-0.3,2.2-0.4h1c1.2,0,2.4,0.4,3.6,1.3l0-0.4l0-1.1l0.1-1.8
		c0-1.9-0.1-3.1-0.4-3.7c-0.2-0.3-0.5-0.5-0.9-0.5c-0.4,0-0.8-0.1-1-0.2v-0.8c0.2-0.1,0.5-0.1,0.8-0.1c0.3,0,1-0.1,2-0.4l0.6-0.1
		l1.7-0.4c0.3-0.1,0.6-0.1,0.6-0.1c0.1,0,0.1,0,0.3,0c0.1,0.2,0.1,0.4,0.1,0.5l0,0.3V12c0,0.3,0,1.2,0.1,2.6v0.9l0,0.5l0,0.8
		l0.1,1.8l0,1c0,0.5,0,1.2,0,2.1c0,0.2,0,0.3,0,0.4v0.6c0,0.2,0,0.3,0,0.4c0,0.2,0,0.4,0.1,0.7v0.9l0,0.4c0,0.3,0,0.8,0,1.4
		c0,0.6,0,1.1,0,1.6c0,0.2,0,0.4,0,0.5v1.3c0,0.4,0,0.9,0,1.5c0.2,0.1,0.7,0.2,1.5,0.3c0.2,0,0.5,0,0.7,0.1c0.1,0.2,0.1,0.3,0.1,0.4
		c0,0.1,0,0.3-0.1,0.5c-0.5,0.1-1,0.2-1.5,0.3c-1.6,0.2-2.7,0.5-3.3,0.8c-0.3,0.2-0.5,0.3-0.7,0.3c-0.1,0-0.3,0-0.4,0
		c0-0.2,0-0.3,0-0.4c0-0.8,0-1.3-0.1-1.5c-0.2,0.1-0.4,0.2-0.6,0.4c-0.8,0.5-1.5,0.8-2.1,1c-0.6,0.2-1.3,0.3-2.1,0.3
		c-1.4,0-2.6-0.3-3.4-0.8c-1.3-0.8-2.1-1.8-2.6-2.9c-0.5-1.1-0.7-2.3-0.7-3.7C172.4,24.1,173.4,22.1,175.5,20.5z M180.8,31.8
		c0.2,0,0.4,0,0.6,0c0.4,0,0.8-0.1,1.2-0.2c0.4-0.2,0.9-0.4,1.4-0.7c0-0.4,0-0.6,0-0.7c0-3.6-0.1-5.8-0.1-6.5
		c-0.1-1-0.5-1.8-1.1-2.3s-1.4-0.8-2.2-0.8c-0.5,0-1,0.1-1.4,0.3s-0.8,0.4-1.1,0.8c-0.4,0.5-0.7,1.1-1,1.7c-0.3,0.9-0.4,1.7-0.4,2.5
		c0,1.9,0.4,3.3,1.2,4.3C178.5,31,179.5,31.6,180.8,31.8z"/>
	<path d="M190.9,33.6l0-1.1l1.9-0.3c0.3-0.1,0.5-0.2,0.6-0.4s0.2-0.5,0.2-1v-0.2c0-0.1,0-0.4,0-0.7s0-0.7,0-1c0-0.2,0-0.6-0.1-1.2
		l0-0.9l0-0.8l0.1-2.8c0-0.4,0-0.7-0.1-1.1c-0.1-0.2-0.4-0.3-0.7-0.4s-0.9-0.2-1.7-0.3v-1c1.2-0.1,2.2-0.3,3.1-0.7
		c0.6-0.3,1.3-0.8,2-1.5h1.1c0,1.4,0.1,3.2,0.1,5.5l-0.1,7c0,0.5,0,0.9,0.1,1.3c0.4,0.1,0.9,0.2,1.7,0.4c0.3,0,0.6,0.1,0.7,0.2
		l0,0.9c-0.3,0-0.5,0-0.7,0c-0.2,0-0.4,0-0.8,0c-1.2-0.1-2.7-0.1-4.7-0.1c-0.6,0-1.1,0-1.6,0.1C191.4,33.6,191.1,33.6,190.9,33.6z
		 M193.3,13.2c0-0.6,0.2-1.1,0.6-1.5c0.4-0.4,0.9-0.6,1.5-0.6c0.7,0,1.2,0.2,1.7,0.6c0.4,0.4,0.7,0.9,0.7,1.4c0,0.4-0.1,0.8-0.3,1.2
		c-0.2,0.4-0.5,0.7-0.8,0.9c-0.4,0.2-0.8,0.4-1.2,0.4c-0.6,0-1.1-0.2-1.5-0.7C193.5,14.4,193.3,13.8,193.3,13.2z"/>
	<path d="M215,21.1c0.7,0.7,1.3,1.5,1.6,2.4c0.4,0.9,0.5,1.8,0.5,2.6c0,1.5-0.2,2.8-0.7,3.7c-0.7,1.4-1.7,2.5-2.9,3.1
		c-1.2,0.7-2.6,1-4.2,1c-1.8,0-3.3-0.4-4.5-1.2c-1.2-0.8-2.1-1.7-2.6-2.7c-0.5-1-0.8-2.3-0.8-3.8c0-0.8,0.1-1.5,0.4-2.3
		c0.2-0.8,0.6-1.4,1-2c0.4-0.6,0.9-1,1.4-1.4c0.8-0.5,1.5-0.9,2.3-1.2s1.7-0.4,2.8-0.4C211.8,19,213.7,19.7,215,21.1z M205.7,27
		c0.1,1.4,0.2,2.2,0.2,2.5c0.1,0.8,0.4,1.4,0.7,2c0.2,0.4,0.6,0.7,1.1,0.9s1.1,0.4,1.8,0.4c0.8,0,1.5-0.3,2.1-0.8
		c0.6-0.5,1-1.4,1.2-2.5c0.2-0.7,0.2-2,0.2-3.6c0-2.1-0.3-3.5-1-4.4s-1.6-1.3-2.7-1.3c-0.9,0-1.6,0.2-2.2,0.7
		c-0.6,0.5-1,1.2-1.2,2.2C205.8,23.7,205.7,25,205.7,27z"/>
</g>
</svg>
