<?xml version="1.0" encoding="utf-8"?>
<!-- Generator: Adobe Illustrator 27.0.0, SVG Export Plug-In . SVG Version: 6.00 Build 0)  -->
<!DOCTYPE svg PUBLIC "-//W3C//DTD SVG 1.1//EN" "http://www.w3.org/Graphics/SVG/1.1/DTD/svg11.dtd" [
	<!ENTITY st0 "fill:#EE2C7B;">
	<!ENTITY st1 "fill:none;stroke:#EE2C7B;stroke-width:1.25;stroke-miterlimit:10;">
]>
<svg version="1.1" id="Layer_1" xmlns="http://www.w3.org/2000/svg" xmlns:xlink="http://www.w3.org/1999/xlink" x="0px" y="0px"
	 viewBox="0 0 176.17 193.24" style="enable-background:new 0 0 176.17 193.24;" xml:space="preserve">
<path style="&st0;" d="M136.08,90.02c-0.1-6.4-1.3-14.6-5-22.8c-3.7-8.2-9.7-13.5-16.5-17.3s-17.3-6.2-22.5-7.2
	c-5.3-1-11.9-2.3-15.6-4.5c-3.7-2.1-4.4-3.4-6.3-7s-1.2-10.4-0.9-11.6c0.3-1.2,1-4.5,5.5-4.6s11.8,2.5,14.4,2.8
	c2.6,0.4,6.4,1.8,11.3-2.3c4.9-4.1,4.2-14.1,4.2-14.1l0,0c-1.4,6.4-4.6,7.5-10.8,7.4c-6.2-0.1-8.1-0.7-15.3-2.3
	c-7.2-1.6-11.4,0-12.3,0.3s-5.7,2.1-8.4,7.3c-2.7,5.1-2.7,11.4-2.5,13.8c0.2,2.5,0.9,7.9,4.4,12.5c3.3,4.5,4,5.3,4.4,5.9
	c-3,1.7-8.6,4.2-13.2,8.1c-4.9,4.2-9.1,10.2-10.8,15.8s-2.8,8.8-3,17.7s1.8,17.8,3.2,23.2c1.4,5.4,5.9,14.7,9.9,19.9
	c4,5.2,10.5,12,22.3,16.3c11.7,4.3,26.2,0.4,33.1-2.8c6.9-3.3,15.5-9.2,19.7-15.2c4.2-6,7.5-12.2,9.4-19.8
	C136.58,101.82,136.18,96.42,136.08,90.02z M120.08,105.52c-0.9,3.8-1.9,11-8.8,22c-6.8,11-15.3,16.4-25.4,16.3s-19.1-7.3-24.3-13.9
	c-5.2-6.6-7.7-12.6-10.3-20.4c-2.6-7.7-2.6-16.8-2.6-20.1c0-3.3,0.4-10.3,3.1-17.1s4.8-9.7,8-14.1c3.2-4.4,4.9-5.9,6.9-7.5
	c0.7-0.5,1.3-1,1.7-1.3c2.2,1.1,5.8,2.7,17.5,5.3c13.5,3,19.3,7.3,23.1,10c3.8,2.7,10.2,9.9,12.1,19.3
	C123.08,93.42,121.08,101.72,120.08,105.52z"/>
<g>
	<line style="&st1;" x1="79.08" y1="48.92" x2="50.78" y2="126.42"/>
	<line style="&st1;" x1="87.38" y1="53.42" x2="58.18" y2="133.32"/>
	<line style="&st1;" x1="96.18" y1="56.62" x2="65.58" y2="140.22"/>
	<line style="&st1;" x1="106.78" y1="55.02" x2="73.98" y2="144.62"/>
	<line style="&st1;" x1="113.78" y1="63.02" x2="83.18" y2="146.62"/>
	<line style="&st1;" x1="123.38" y1="63.82" x2="92.88" y2="147.42"/>
</g>
<g>
	<path style="&st0;" d="M15.28,162.72h2.8l-12.5,29.1h-2.8L15.28,162.72z"/>
	<path style="&st0;" d="M24.58,173.92c0.6-0.4,1.1-0.7,1.6-0.8c0.5-0.2,1.2-0.3,2.2-0.4h1c1.2,0,2.4,0.4,3.6,1.3v-0.4v-1.1l0.1-1.8
		c0-1.9-0.1-3.1-0.4-3.7c-0.2-0.3-0.5-0.5-0.9-0.5c-0.4,0-0.8-0.1-1-0.2v-0.8c0.2-0.1,0.5-0.1,0.8-0.1s1-0.1,2-0.4l0.6-0.1l1.7-0.4
		c0.3-0.1,0.6-0.1,0.6-0.1c0.1,0,0.1,0,0.3,0c0.1,0.2,0.1,0.4,0.1,0.5v0.3v0.3c0,0.3,0,1.2,0.1,2.5v0.9v0.5v0.9l0.1,1.8v1
		c0,0.5,0,1.2,0,2.2c0,0.2,0,0.3,0,0.4v0.6c0,0.2,0,0.3,0,0.4c0,0.2,0,0.4,0.1,0.7v0.9v0.4c0,0.3,0,0.8,0,1.4s0,1.1,0,1.6
		c0,0.2,0,0.4,0,0.5v1.3c0,0.4,0,0.9,0,1.5c0.2,0.1,0.7,0.2,1.5,0.3c0.2,0,0.5,0,0.7,0.1c0.1,0.2,0.1,0.3,0.1,0.4s0,0.3-0.1,0.5
		c-0.5,0.1-1,0.2-1.5,0.3c-1.6,0.2-2.7,0.5-3.3,0.8c-0.3,0.2-0.5,0.3-0.7,0.3c-0.1,0-0.3,0-0.4,0c0-0.2,0-0.3,0-0.4
		c0-0.8,0-1.3-0.1-1.5c-0.2,0.1-0.4,0.2-0.6,0.4c-0.8,0.5-1.5,0.8-2.1,1s-1.3,0.3-2.2,0.3c-1.4,0-2.6-0.3-3.4-0.8
		c-1.3-0.8-2.1-1.8-2.6-2.9s-0.7-2.3-0.7-3.7C21.38,177.52,22.48,175.52,24.58,173.92z M29.88,185.22c0.2,0,0.4,0,0.6,0
		c0.4,0,0.8-0.1,1.2-0.2c0.4-0.2,0.9-0.4,1.4-0.7c0-0.4,0-0.6,0-0.7c0-3.6-0.1-5.8-0.2-6.5c-0.1-1-0.5-1.8-1.1-2.3
		c-0.6-0.5-1.4-0.8-2.2-0.8c-0.5,0-1,0.1-1.4,0.3c-0.5,0.2-0.8,0.4-1.1,0.8c-0.4,0.5-0.7,1.1-1,1.7c-0.3,0.9-0.4,1.7-0.4,2.5
		c0,1.9,0.4,3.3,1.2,4.3C27.58,184.52,28.58,185.02,29.88,185.22z"/>
	<path style="&st0;" d="M40.88,177.92c0.3-1,0.6-1.6,0.8-1.9c0.6-0.9,1.3-1.7,2-2.2s1.4-0.9,2-1c0.8-0.2,1.4-0.3,1.8-0.3
		c1.1,0,1.9,0.1,2.6,0.2c0.7,0.2,1.2,0.4,1.7,0.7c0.6,0.4,1.2,0.9,1.5,1.3c0.4,0.5,0.7,1,0.9,1.6s0.4,1.4,0.4,2.2h-1.9
		c-0.5,0-1.7,0-3.5-0.1c-0.7-0.1-1.1-0.1-1.4-0.1c-0.1,0-0.7,0-1.8,0h-1.5c0,0.2,0,0.3,0,0.4c0,0.6,0.1,1.2,0.2,1.9
		c0.1,0.7,0.4,1.3,0.7,1.8s0.7,0.9,1.1,1.3c0.4,0.4,0.9,0.6,1.4,0.8l1,0.3c0.9,0,1.5,0,1.8-0.1c0.5-0.1,1-0.3,1.4-0.4
		s0.9-0.5,1.5-0.9c0.4,0.3,0.8,0.6,1,0.8c-1,1.1-2,1.9-3.1,2.4s-2.3,0.7-3.6,0.7c-0.9,0-1.6-0.1-2.2-0.2c-0.8-0.2-1.5-0.5-2.1-0.9
		s-1.1-0.9-1.6-1.6c-0.4-0.6-0.8-1.3-1-1.9c-0.3-0.9-0.4-1.6-0.4-2.1C40.68,179.62,40.78,178.72,40.88,177.92z M50.78,177.22
		c0-0.6-0.1-1.3-0.4-1.8c-0.2-0.6-0.6-1-1.1-1.4c-0.5-0.3-1-0.5-1.5-0.5c-0.8,0-1.5,0.3-2.1,1s-1,1.6-1,2.7h3.9c0.2,0,0.6,0,1.1-0.1
		c0.3,0,0.6,0,0.7,0C50.48,177.22,50.58,177.22,50.78,177.22z"/>
	<path style="&st0;" d="M55.68,173.02h0.4l3.6,0.1h1.1l2.3-0.1h0.4c0.1,0.2,0.1,0.4,0.1,0.5s0,0.3-0.1,0.6c-0.2,0-0.5,0.1-0.8,0.1
		c-0.6,0.1-0.9,0.2-1,0.3c-0.1,0.1-0.2,0.1-0.2,0.2c0,0.2,0.1,0.4,0.2,0.7c0.1,0.1,0.2,0.5,0.5,1.1c0.1,0.3,0.3,0.7,0.6,1.2
		c0.9,1.8,1.5,3.1,1.8,4.1c0.2,0.6,0.4,1,0.5,1.3c0.8-1.8,1.7-4.2,2.6-7c0.2-0.7,0.4-1.3,0.4-1.8c-0.7-0.1-1.3-0.2-1.9-0.2h-0.2
		h-0.3c0-0.2,0-0.4,0-0.6c0-0.3,0-0.5,0.1-0.6h0.6h1.5h0.8c0.5,0,1,0.1,1.6,0.1l1.4-0.1c0.1,0,0.3,0,0.5,0c0,0.2,0,0.4,0,0.5
		s0,0.3,0,0.5c-1.2,0.3-2,0.5-2.4,0.8c-0.1,0.2-0.1,0.3-0.2,0.3l-0.1,0.2c-0.5,1.4-1.2,3.2-2.2,5.4l-1.8,4.5c-0.2,0.6-0.4,1-0.5,1.2
		c-0.2,0.4-0.4,0.7-0.5,1h-1.4c-0.4-0.8-0.9-1.7-1.4-2.8l-2.3-5.2c-0.6-1.4-1.2-2.8-1.9-4.4c-0.1-0.2-0.2-0.3-0.2-0.4
		c-0.9-0.2-1.5-0.4-1.6-0.6c0-0.1,0-0.3,0-0.5C55.58,173.42,55.58,173.22,55.68,173.02z"/>
	<path style="&st0;" d="M86.38,162.72h2.8l-12.5,29.1h-2.8L86.38,162.72z"/>
	<path style="&st0;" d="M106.98,183.82l0.4,0.3c0.1,0.1,0.2,0.2,0.2,0.3v0.1c-0.3,1-0.6,1.7-1.1,2.1c-0.4,0.4-1,0.6-1.7,0.6
		s-1.2-0.2-1.7-0.6s-0.9-1-1.3-2c-0.5,0.9-1.2,1.5-2.1,2s-2,0.7-3.3,0.7c-1.2,0-2.1-0.2-2.6-0.7c-0.6-0.5-0.8-1.1-0.8-2
		c0-0.4,0.1-0.8,0.2-1.1c0.2-0.4,0.4-0.8,0.8-1.2c0.4-0.4,1-0.8,1.8-1.3c0.1-0.1,0.6-0.3,1.3-0.6l4.3-1.7c0-0.4,0.1-0.9,0.1-1.3
		c0-1.5-0.2-2.6-0.6-3.1c-0.2-0.3-0.6-0.5-1.2-0.5s-1.1,0.1-1.6,0.3c-0.5,0.2-0.8,0.5-1,0.8s-0.3,0.7-0.4,1.4
		c-0.1,0.5-0.2,0.8-0.2,0.9c-0.2,0.2-0.5,0.4-0.9,0.6s-0.8,0.3-0.9,0.4c-0.6,0.3-1.1,0.4-1.5,0.4c-0.2-0.1-0.2-0.3-0.2-0.6
		c0-0.6,0.1-1.2,0.4-1.7c0.4-0.7,1-1.3,1.9-1.9c0.8-0.6,1.6-1.1,2.3-1.3c1-0.3,2.2-0.5,3.6-0.5c0.9,0,1.7,0.2,2.3,0.5
		s1.1,0.8,1.4,1.5s0.4,1.9,0.4,3.6v2.8v2.1v0.5c0,0.5,0.1,0.8,0.2,1s0.3,0.3,0.5,0.3c0.1,0,0.2,0,0.3-0.1l0.5-0.8L106.98,183.82z
		 M101.38,179.82c-0.7,0.2-1.4,0.6-2.2,1.1c-0.8,0.5-1.4,1-1.7,1.5c-0.2,0.4-0.3,0.8-0.3,1.4c0,0.5,0.1,0.9,0.4,1.2
		c0.3,0.3,0.6,0.5,1,0.5c0.6,0,1.2-0.2,1.6-0.5c0.6-0.5,1-0.9,1.1-1.2c0.1-0.3,0.2-1.1,0.2-2.5
		C101.48,180.82,101.48,180.32,101.38,179.82z"/>
	<path style="&st0;" d="M108.78,173.22c0.1,0,0.2-0.1,0.3-0.1h5.1h0.4v1.1l-0.1,1.7v0.9v2.6v1.8c0,1.1,0.1,2.1,0.2,2.7
		c0.2,0.5,0.4,0.9,0.8,1.1s0.8,0.4,1.4,0.4c0.5,0,0.9-0.1,1.2-0.2c0.3-0.1,0.7-0.3,1.1-0.6c0.4-0.3,0.7-0.5,0.8-0.6
		c0.3-0.4,0.6-0.7,0.7-1l0.1-4.2c0-0.4,0-0.8,0-1.1c0-0.3,0-0.7,0-1.1s0-0.7,0-0.8v-0.6v-0.4c-0.3-0.2-0.7-0.3-1.1-0.3l-1.1-0.1
		c-0.1,0-0.1-0.1-0.2-0.1c0-0.2-0.1-0.4-0.1-0.5s0-0.3,0.1-0.6c0.4-0.1,0.7-0.1,1-0.1h2.6c0.7,0,1.6,0,2.6,0v1.3l-0.1,1.6v2v2.9v1.3
		v0.9c0,0.6-0.1,0.9-0.1,1c0,0.3,0.1,0.5,0.2,0.6s0.2,0.2,0.3,0.2l1.6-0.1h0.2c0,0.4,0.1,0.6,0.1,0.7s0,0.2-0.1,0.4
		c-0.6,0-1,0.1-1.3,0.1c-1.2,0.3-2.6,0.7-4,1.2h-0.7v-2.8c-0.1,0.1-0.3,0.3-0.6,0.5c-1,0.9-1.9,1.5-2.6,1.8s-1.5,0.5-2.3,0.5
		c-0.9,0-1.7-0.2-2.4-0.6s-1.2-0.9-1.5-1.4c-0.2-0.4-0.4-1.1-0.5-1.9c0-0.2,0-1.3,0-3.3v-0.5c0.1-1.1,0.1-1.9,0.1-2.5
		c0-0.9,0-1.5-0.1-1.8c0-0.1-0.1-0.3-0.2-0.5c-0.2-0.1-0.3-0.1-0.6-0.2c-0.7-0.1-1.2-0.2-1.4-0.4c-0.1,0-0.1-0.1-0.1-0.2
		s0-0.2,0-0.3C108.78,173.62,108.78,173.42,108.78,173.22z"/>
	<path style="&st0;" d="M131.78,173.92c0.6-0.4,1.1-0.7,1.6-0.8c0.5-0.2,1.2-0.3,2.2-0.4h1c1.2,0,2.4,0.4,3.6,1.3v-0.4v-1.1l0.1-1.8
		c0-1.9-0.1-3.1-0.4-3.7c-0.2-0.3-0.5-0.5-0.9-0.5s-0.8-0.1-1-0.2v-0.8c0.2-0.1,0.5-0.1,0.8-0.1s1-0.1,2-0.4l0.6-0.1l1.7-0.4
		c0.3-0.1,0.6-0.1,0.6-0.1c0.1,0,0.1,0,0.3,0c0.1,0.2,0.1,0.4,0.1,0.5v0.3v0.3c0,0.3,0,1.2,0.1,2.5v0.9v0.5v0.9l0.1,1.8v1
		c0,0.5,0,1.2,0,2.2c0,0.2,0,0.3,0,0.4v0.6c0,0.2,0,0.3,0,0.4c0,0.2,0,0.4,0.1,0.7v0.9v0.4c0,0.3,0,0.8,0,1.4s0,1.1,0,1.6
		c0,0.2,0,0.4,0,0.5v1.3c0,0.4,0,0.9,0,1.5c0.2,0.1,0.7,0.2,1.5,0.3c0.2,0,0.5,0,0.7,0.1c0.1,0.2,0.1,0.3,0.1,0.4s0,0.3-0.1,0.5
		c-0.5,0.1-1,0.2-1.5,0.3c-1.6,0.2-2.7,0.5-3.3,0.8c-0.3,0.2-0.5,0.3-0.7,0.3c-0.1,0-0.3,0-0.4,0c0-0.2,0-0.3,0-0.4
		c0-0.8,0-1.3-0.1-1.5c-0.2,0.1-0.4,0.2-0.6,0.4c-0.8,0.5-1.5,0.8-2.1,1s-1.3,0.3-2.2,0.3c-1.4,0-2.6-0.3-3.4-0.8
		c-1.3-0.8-2.1-1.8-2.6-2.9s-0.7-2.3-0.7-3.7C128.68,177.52,129.68,175.52,131.78,173.92z M137.08,185.22c0.2,0,0.4,0,0.6,0
		c0.4,0,0.8-0.1,1.2-0.2c0.4-0.2,0.9-0.4,1.4-0.7c0-0.4,0-0.6,0-0.7c0-3.6-0.1-5.8-0.2-6.5c-0.1-1-0.5-1.8-1.1-2.3s-1.4-0.8-2.2-0.8
		c-0.5,0-1,0.1-1.4,0.3c-0.5,0.2-0.8,0.4-1.1,0.8c-0.4,0.5-0.7,1.1-1,1.7c-0.3,0.9-0.4,1.7-0.4,2.5c0,1.9,0.4,3.3,1.2,4.3
		C134.78,184.52,135.78,185.02,137.08,185.22z"/>
	<path style="&st0;" d="M147.18,187.02v-1.1l1.9-0.3c0.3-0.1,0.5-0.2,0.6-0.4c0.1-0.2,0.2-0.5,0.2-1v-0.2c0-0.1,0-0.4,0-0.7
		c0-0.4,0-0.7,0-0.9c0-0.2,0-0.6-0.1-1.2v-0.9v-0.8l0.1-2.8c0-0.4,0-0.7-0.1-1.1c-0.1-0.2-0.4-0.3-0.7-0.4c-0.3-0.1-0.9-0.2-1.7-0.3
		v-1c1.2-0.1,2.2-0.3,3.1-0.7c0.6-0.3,1.3-0.8,2-1.5h1.1c0,1.4,0.1,3.2,0.1,5.5l-0.1,7c0,0.5,0,0.9,0.1,1.3c0.4,0.1,0.9,0.3,1.7,0.4
		c0.3,0,0.6,0.1,0.7,0.2v0.9c-0.3,0-0.5,0-0.7,0s-0.4,0-0.8,0c-1.2-0.1-2.7-0.1-4.7-0.1c-0.6,0-1.1,0-1.6,0.1
		C147.68,187.02,147.38,187.02,147.18,187.02z M149.58,166.62c0-0.6,0.2-1.1,0.6-1.5s0.9-0.6,1.5-0.6c0.7,0,1.2,0.2,1.7,0.6
		c0.4,0.4,0.7,0.9,0.7,1.4c0,0.4-0.1,0.8-0.3,1.2c-0.2,0.4-0.5,0.7-0.8,0.9s-0.8,0.4-1.2,0.4c-0.5,0-1.1-0.2-1.5-0.7
		C149.78,167.82,149.58,167.22,149.58,166.62z"/>
	<path style="&st0;" d="M171.28,174.52c0.7,0.7,1.3,1.5,1.6,2.4s0.5,1.8,0.5,2.6c0,1.5-0.2,2.8-0.7,3.7c-0.7,1.4-1.7,2.5-2.9,3.1
		c-1.2,0.7-2.6,1-4.2,1c-1.8,0-3.3-0.4-4.5-1.2c-1.2-0.8-2.1-1.7-2.7-2.7c-0.5-1-0.8-2.3-0.8-3.8c0-0.8,0.1-1.5,0.4-2.3s0.6-1.4,1-2
		s0.9-1,1.4-1.4c0.8-0.5,1.5-0.9,2.3-1.2c0.8-0.2,1.7-0.4,2.8-0.4C168.08,172.42,169.98,173.12,171.28,174.52z M161.98,180.42
		c0.1,1.4,0.2,2.2,0.2,2.4c0.1,0.8,0.4,1.4,0.7,2c0.2,0.4,0.6,0.7,1.1,0.9c0.5,0.3,1.1,0.4,1.8,0.4c0.8,0,1.5-0.3,2.1-0.8
		s1-1.4,1.2-2.5c0.2-0.7,0.2-2,0.2-3.6c0-2.1-0.3-3.5-1-4.4s-1.6-1.3-2.7-1.3c-0.9,0-1.6,0.2-2.2,0.7s-1,1.2-1.2,2.2
		C162.08,177.12,161.98,178.42,161.98,180.42z"/>
</g>
</svg>
