<?xml version="1.0" encoding="utf-8"?>
<!-- Generator: Adobe Illustrator 27.0.0, SVG Export Plug-In . SVG Version: 6.00 Build 0)  -->
<svg version="1.1" id="Layer_1" xmlns="http://www.w3.org/2000/svg" xmlns:xlink="http://www.w3.org/1999/xlink" x="0px" y="0px"
	 viewBox="0 0 179.33 201.11" style="enable-background:new 0 0 179.33 201.11;" xml:space="preserve">
<path d="M138.5,91.85c-0.05-6.41-1.34-14.64-5.04-22.8c-3.71-8.16-9.74-13.47-16.47-17.29s-17.26-6.21-22.52-7.2
	c-5.25-0.99-11.88-2.32-15.6-4.46c-3.73-2.15-4.37-3.42-6.32-6.97c-1.95-3.56-1.24-10.44-0.95-11.63c0.29-1.19,0.95-4.45,5.48-4.59
	c4.53-0.13,11.77,2.46,14.38,2.83c2.61,0.37,6.44,1.79,11.31-2.32c4.87-4.12,4.24-14.12,4.24-14.12v0
	c-1.36,6.41-4.62,7.49-10.78,7.36c-6.16-0.13-8.08-0.75-15.32-2.33c-7.24-1.58-11.38,0.04-12.28,0.29s-5.69,2.12-8.39,7.26
	c-2.7,5.14-2.68,11.37-2.5,13.83c0.17,2.46,0.88,7.86,4.38,12.55c3.34,4.47,4.02,5.27,4.39,5.93c-3.03,1.7-8.61,4.22-13.23,8.14
	c-4.9,4.15-9.05,10.16-10.84,15.84s-2.78,8.83-3.02,17.71s1.83,17.79,3.2,23.16c1.36,5.37,5.9,14.73,9.94,19.88
	c4.04,5.16,10.55,11.95,22.27,16.26c11.73,4.31,26.23,0.44,33.09-2.84c6.86-3.28,15.5-9.23,19.72-15.2
	c4.22-5.97,7.5-12.22,9.4-19.83C138.94,103.7,138.56,98.27,138.5,91.85z M122.52,107.39c-0.92,3.77-1.92,11.05-8.76,22
	c-6.84,10.96-15.34,16.41-25.44,16.3s-19.11-7.26-24.27-13.91c-5.16-6.64-7.72-12.63-10.27-20.35c-2.55-7.72-2.6-16.78-2.55-20.12
	c0.05-3.33,0.43-10.25,3.13-17.06s4.77-9.7,8.01-14.07c3.24-4.37,4.87-5.89,6.87-7.48c0.68-0.54,1.26-0.98,1.73-1.32
	c2.18,1.1,5.78,2.65,17.46,5.28c13.54,3.05,19.33,7.3,23.12,9.96c3.8,2.66,10.23,9.92,12.08,19.27
	C125.48,95.26,123.43,103.62,122.52,107.39z"/>
<g>
	<path d="M80.15,56.21c-0.42-0.11-0.82-0.22-1.21-0.33l-21.98,60.11c0.23,0.59,0.45,1.18,0.69,1.75L80.15,56.21z"/>
	<path d="M63.61,128.68l25.68-70.26c-0.4-0.1-0.79-0.19-1.2-0.29c-0.01,0-0.01,0-0.02-0.01l-25.33,69.28
		C63.02,127.84,63.31,128.26,63.61,128.68z"/>
	<path d="M70.67,136.59l27.59-75.47c-0.38-0.14-0.78-0.28-1.18-0.42l-27.42,75C70,136,70.33,136.3,70.67,136.59z"/>
	<path d="M78.71,141.87l28.02-76.65c-0.35-0.21-0.71-0.43-1.09-0.65l-28.05,76.74C77.96,141.51,78.33,141.69,78.71,141.87z"/>
	<path d="M87.83,144.17l26.63-72.86c-0.32-0.36-0.64-0.69-0.96-1.01l-26.98,73.8C86.95,144.14,87.39,144.15,87.83,144.17z"/>
	<path d="M98.59,141.98l22.15-60.58c-0.22-0.57-0.47-1.13-0.72-1.67l-23,62.93C97.54,142.45,98.07,142.23,98.59,141.98z"/>
</g>
<g>
	<path d="M17.64,164.59h2.84l-12.49,29.1H5.15L17.64,164.59z"/>
	<path d="M26.99,175.75c0.56-0.39,1.1-0.67,1.62-0.84c0.52-0.17,1.25-0.3,2.2-0.39h0.96c1.24,0,2.43,0.43,3.57,1.28l0.03-0.41
		l-0.02-1.14l0.07-1.83c0-1.92-0.15-3.14-0.45-3.66c-0.17-0.31-0.47-0.47-0.9-0.5c-0.43-0.02-0.77-0.1-1.03-0.22v-0.82
		c0.22-0.07,0.5-0.1,0.84-0.11c0.34,0,1.01-0.12,2-0.35l0.58-0.12l1.69-0.39c0.34-0.08,0.55-0.12,0.63-0.12
		c0.06,0,0.15,0.01,0.27,0.03c0.07,0.24,0.1,0.42,0.1,0.53l-0.02,0.26v0.31c0,0.32,0.02,1.17,0.05,2.55v0.92l0.02,0.5l-0.02,0.85
		l0.05,1.78l-0.04,1.04c-0.02,0.46-0.03,1.17-0.03,2.15c0,0.16,0,0.3,0.02,0.43v0.63c-0.01,0.18-0.02,0.32-0.02,0.41
		c0,0.17,0.02,0.42,0.05,0.73v0.94l-0.02,0.36c-0.02,0.33-0.03,0.79-0.03,1.37c0,0.59,0.01,1.13,0.03,1.61
		c0.01,0.19,0.02,0.37,0.02,0.53v1.28c0,0.41,0.01,0.9,0.03,1.47c0.21,0.13,0.71,0.22,1.5,0.27c0.25,0.01,0.47,0.04,0.67,0.08
		c0.06,0.17,0.08,0.3,0.08,0.38c0,0.1-0.04,0.26-0.12,0.46c-0.47,0.11-0.96,0.2-1.47,0.26c-1.56,0.19-2.67,0.47-3.33,0.82
		c-0.32,0.18-0.54,0.27-0.67,0.27c-0.12,0-0.27-0.01-0.43-0.03c0.01-0.21,0.02-0.34,0.02-0.4c0-0.78-0.02-1.28-0.05-1.5
		c-0.17,0.09-0.38,0.21-0.63,0.36c-0.76,0.46-1.46,0.78-2.08,0.96c-0.63,0.18-1.34,0.27-2.15,0.27c-1.44,0-2.58-0.27-3.43-0.82
		c-1.26-0.8-2.14-1.75-2.62-2.87c-0.48-1.12-0.73-2.34-0.73-3.67C23.81,179.34,24.87,177.38,26.99,175.75z M32.25,187.04
		c0.24,0.02,0.44,0.03,0.62,0.03c0.38,0,0.78-0.08,1.21-0.23c0.43-0.16,0.88-0.39,1.36-0.69c0.01-0.38,0.02-0.61,0.02-0.7
		c0-3.61-0.05-5.79-0.15-6.53c-0.14-0.99-0.51-1.75-1.13-2.29s-1.36-0.8-2.24-0.8c-0.5,0-0.98,0.09-1.43,0.27
		c-0.45,0.18-0.82,0.44-1.1,0.79c-0.42,0.5-0.74,1.07-0.96,1.71c-0.3,0.89-0.45,1.72-0.45,2.49c0,1.85,0.39,3.27,1.18,4.26
		C29.96,186.33,30.99,186.9,32.25,187.04z"/>
	<path d="M43.28,179.79c0.3-0.97,0.56-1.61,0.79-1.93c0.64-0.93,1.32-1.67,2.04-2.19s1.38-0.87,1.96-1.04
		c0.75-0.22,1.36-0.33,1.83-0.33c1.07,0,1.94,0.08,2.6,0.25c0.66,0.17,1.21,0.4,1.66,0.71c0.64,0.44,1.15,0.89,1.54,1.35
		c0.39,0.46,0.7,0.99,0.95,1.6c0.25,0.61,0.38,1.36,0.4,2.24l-1.9-0.03c-0.52,0-1.67-0.05-3.45-0.15c-0.66-0.06-1.12-0.09-1.37-0.09
		c-0.08,0-0.7,0.01-1.85,0.03H47c-0.02,0.16-0.03,0.3-0.03,0.41c0,0.61,0.07,1.24,0.22,1.91c0.15,0.67,0.37,1.26,0.67,1.76
		c0.3,0.51,0.66,0.95,1.1,1.31c0.44,0.37,0.89,0.63,1.36,0.79l0.99,0.33c0.88,0,1.46-0.03,1.76-0.09c0.55-0.11,1.03-0.26,1.44-0.44
		s0.92-0.48,1.51-0.9c0.41,0.3,0.75,0.56,1.03,0.8c-1,1.1-2.04,1.91-3.12,2.4c-1.08,0.5-2.28,0.74-3.61,0.74
		c-0.9,0-1.63-0.08-2.2-0.24c-0.76-0.21-1.45-0.52-2.07-0.94s-1.14-0.95-1.59-1.57c-0.44-0.63-0.77-1.27-0.99-1.93
		c-0.29-0.87-0.43-1.56-0.43-2.09C43.04,181.48,43.12,180.59,43.28,179.79z M53.21,179.06c-0.01-0.64-0.14-1.25-0.38-1.84
		c-0.24-0.58-0.61-1.04-1.11-1.36c-0.5-0.33-1.01-0.49-1.52-0.49c-0.76,0-1.45,0.34-2.07,1.01c-0.62,0.67-0.96,1.58-1.04,2.73
		l3.9,0.03c0.25,0,0.6-0.02,1.06-0.05c0.33-0.03,0.56-0.05,0.7-0.05C52.85,179.05,53,179.05,53.21,179.06z"/>
	<path d="M58.06,174.93l0.39-0.02l3.55,0.09l1.06,0.02l2.26-0.08h0.39c0.07,0.21,0.1,0.38,0.1,0.49c0,0.13-0.02,0.34-0.07,0.62
		c-0.22,0.03-0.47,0.07-0.75,0.1c-0.56,0.08-0.91,0.17-1.04,0.27c-0.1,0.07-0.15,0.14-0.15,0.22c0,0.19,0.07,0.43,0.22,0.72
		c0.07,0.11,0.23,0.49,0.48,1.11c0.1,0.27,0.29,0.68,0.56,1.23c0.85,1.77,1.46,3.14,1.83,4.12c0.22,0.58,0.39,1.01,0.53,1.28
		c0.8-1.84,1.66-4.17,2.58-7.02c0.24-0.74,0.38-1.34,0.41-1.8c-0.67-0.1-1.3-0.15-1.88-0.15h-0.21l-0.27-0.03
		c-0.02-0.2-0.03-0.39-0.03-0.57c0-0.27,0.04-0.47,0.14-0.61l0.6-0.05l1.49,0.02h0.84c0.51,0.05,1.05,0.07,1.61,0.07l1.37-0.07
		c0.11,0,0.27,0,0.48,0.02c0.01,0.2,0.02,0.37,0.02,0.49s-0.01,0.28-0.02,0.47c-1.16,0.27-1.96,0.53-2.41,0.77
		c-0.08,0.16-0.13,0.27-0.15,0.33l-0.07,0.15c-0.46,1.37-1.18,3.18-2.17,5.42l-1.85,4.47c-0.24,0.57-0.42,0.96-0.53,1.18
		c-0.19,0.39-0.36,0.72-0.5,1.01h-1.38c-0.45-0.76-0.91-1.69-1.38-2.79l-2.32-5.2c-0.57-1.38-1.22-2.83-1.95-4.36
		c-0.09-0.19-0.17-0.31-0.22-0.36c-0.92-0.25-1.45-0.44-1.59-0.58c-0.02-0.13-0.03-0.29-0.03-0.46
		C57.97,175.24,58,175.06,58.06,174.93z"/>
	<path d="M88.76,164.59h2.84l-12.49,29.1h-2.84L88.76,164.59z"/>
	<path d="M109.4,185.64l0.39,0.26c0.1,0.08,0.17,0.18,0.19,0.29l0.02,0.08c-0.27,1.01-0.63,1.71-1.08,2.09
		c-0.44,0.38-1,0.57-1.66,0.57c-0.67,0-1.25-0.18-1.73-0.55s-0.93-1.02-1.32-1.96c-0.49,0.87-1.18,1.52-2.07,1.96
		s-1.98,0.66-3.26,0.66c-1.19,0-2.06-0.25-2.62-0.74c-0.56-0.5-0.84-1.15-0.84-1.96c0-0.38,0.08-0.76,0.25-1.14
		c0.17-0.39,0.43-0.77,0.8-1.15c0.37-0.38,0.97-0.8,1.79-1.26c0.12-0.07,0.56-0.26,1.3-0.58l4.25-1.71
		c0.03-0.43,0.05-0.87,0.05-1.32c0-1.54-0.19-2.59-0.56-3.14c-0.23-0.34-0.63-0.51-1.2-0.51c-0.57,0-1.09,0.11-1.57,0.33
		s-0.83,0.5-1.04,0.84c-0.16,0.25-0.3,0.72-0.41,1.42c-0.08,0.5-0.15,0.79-0.22,0.87c-0.17,0.22-0.48,0.41-0.93,0.59
		s-0.75,0.3-0.91,0.38c-0.62,0.3-1.11,0.44-1.47,0.44c-0.16-0.14-0.24-0.33-0.24-0.58c0-0.65,0.14-1.21,0.41-1.67
		c0.41-0.66,1.03-1.3,1.85-1.92c0.83-0.62,1.6-1.06,2.32-1.31c0.98-0.32,2.18-0.48,3.59-0.48c0.91,0,1.69,0.17,2.35,0.5
		c0.66,0.34,1.11,0.83,1.37,1.5c0.26,0.66,0.38,1.85,0.38,3.57l-0.03,2.82l0.03,2.07v0.53c0,0.48,0.06,0.81,0.19,0.98
		c0.13,0.18,0.29,0.26,0.5,0.26c0.12,0,0.23-0.03,0.32-0.1l0.51-0.8L109.4,185.64z M103.79,181.68c-0.65,0.22-1.38,0.58-2.2,1.08
		c-0.82,0.51-1.38,1.02-1.7,1.53c-0.23,0.38-0.34,0.84-0.34,1.38c0,0.49,0.15,0.89,0.44,1.21c0.3,0.32,0.64,0.48,1.03,0.48
		c0.64,0,1.18-0.18,1.62-0.55c0.6-0.49,0.96-0.88,1.06-1.17c0.1-0.29,0.15-1.11,0.15-2.47
		C103.86,182.68,103.84,182.18,103.79,181.68z"/>
	<path d="M111.16,175.03c0.13-0.05,0.23-0.08,0.31-0.1h5.09l0.38,0.03l0.03,1.14l-0.05,1.67l0.02,0.87l-0.02,2.58v1.76
		c0,1.15,0.06,2.05,0.19,2.71c0.17,0.5,0.45,0.88,0.83,1.13s0.85,0.38,1.39,0.38c0.51,0,0.93-0.05,1.25-0.15
		c0.32-0.1,0.69-0.3,1.1-0.58c0.42-0.29,0.68-0.49,0.79-0.62c0.33-0.36,0.56-0.7,0.68-1.01l0.12-4.25c0.02-0.44,0.03-0.81,0.03-1.09
		c0-0.3-0.01-0.67-0.03-1.12c-0.02-0.45-0.03-0.7-0.03-0.76l0.02-0.63l-0.03-0.38c-0.27-0.17-0.66-0.28-1.15-0.32l-1.14-0.08
		c-0.07-0.03-0.13-0.07-0.19-0.12c-0.05-0.23-0.07-0.4-0.07-0.51c0-0.14,0.02-0.33,0.05-0.58c0.38-0.06,0.7-0.08,0.98-0.08
		l2.64,0.03c0.71,0,1.58-0.01,2.6-0.03l0.03,1.28l-0.07,1.64l0.03,2.05l-0.02,2.94l-0.03,1.31l0.02,0.89
		c-0.05,0.59-0.07,0.93-0.07,1.01c0,0.28,0.05,0.5,0.15,0.63c0.1,0.14,0.2,0.21,0.29,0.21l1.57-0.05l0.21,0.04
		c0.03,0.4,0.05,0.63,0.05,0.68c0,0.08-0.02,0.21-0.05,0.38c-0.6,0.02-1.04,0.06-1.3,0.12c-1.22,0.27-2.55,0.68-4,1.21l-0.68-0.04
		l-0.02-2.79c-0.14,0.11-0.34,0.29-0.6,0.53c-1,0.89-1.86,1.49-2.58,1.8c-0.72,0.31-1.47,0.47-2.26,0.47
		c-0.93,0-1.74-0.19-2.43-0.58s-1.19-0.87-1.5-1.43c-0.24-0.44-0.4-1.08-0.48-1.91c-0.02-0.22-0.04-1.33-0.04-3.34l0.02-0.55
		c0.06-1.12,0.09-1.94,0.09-2.47c0-0.91-0.02-1.52-0.05-1.83c-0.01-0.15-0.07-0.32-0.17-0.51c-0.16-0.07-0.35-0.12-0.56-0.15
		c-0.73-0.13-1.18-0.25-1.37-0.36c-0.06-0.03-0.08-0.11-0.08-0.22c0-0.07,0.01-0.16,0.03-0.27
		C111.12,175.48,111.14,175.29,111.16,175.03z"/>
	<path d="M134.2,175.75c0.56-0.39,1.1-0.67,1.62-0.84c0.52-0.17,1.25-0.3,2.2-0.39h0.96c1.24,0,2.43,0.43,3.57,1.28l0.03-0.41
		l-0.02-1.14l0.07-1.83c0-1.92-0.15-3.14-0.45-3.66c-0.17-0.31-0.47-0.47-0.9-0.5c-0.43-0.02-0.77-0.1-1.03-0.22v-0.82
		c0.22-0.07,0.5-0.1,0.84-0.11c0.34,0,1.01-0.12,2-0.35l0.58-0.12l1.69-0.39c0.34-0.08,0.55-0.12,0.63-0.12
		c0.06,0,0.15,0.01,0.27,0.03c0.07,0.24,0.1,0.42,0.1,0.53l-0.02,0.26v0.31c0,0.32,0.02,1.17,0.05,2.55v0.92l0.02,0.5l-0.02,0.85
		l0.05,1.78l-0.04,1.04c-0.02,0.46-0.03,1.17-0.03,2.15c0,0.16,0,0.3,0.02,0.43v0.63c-0.01,0.18-0.02,0.32-0.02,0.41
		c0,0.17,0.02,0.42,0.05,0.73v0.94l-0.02,0.36c-0.02,0.33-0.03,0.79-0.03,1.37c0,0.59,0.01,1.13,0.03,1.61
		c0.01,0.19,0.02,0.37,0.02,0.53v1.28c0,0.41,0.01,0.9,0.03,1.47c0.21,0.13,0.71,0.22,1.5,0.27c0.25,0.01,0.47,0.04,0.67,0.08
		c0.06,0.17,0.08,0.3,0.08,0.38c0,0.1-0.04,0.26-0.12,0.46c-0.47,0.11-0.96,0.2-1.47,0.26c-1.56,0.19-2.67,0.47-3.33,0.82
		c-0.32,0.18-0.54,0.27-0.67,0.27c-0.12,0-0.27-0.01-0.43-0.03c0.01-0.21,0.02-0.34,0.02-0.4c0-0.78-0.02-1.28-0.05-1.5
		c-0.17,0.09-0.38,0.21-0.63,0.36c-0.76,0.46-1.46,0.78-2.08,0.96c-0.63,0.18-1.34,0.27-2.15,0.27c-1.44,0-2.58-0.27-3.43-0.82
		c-1.26-0.8-2.14-1.75-2.62-2.87c-0.48-1.12-0.73-2.34-0.73-3.67C131.02,179.34,132.08,177.38,134.2,175.75z M139.46,187.04
		c0.24,0.02,0.44,0.03,0.62,0.03c0.38,0,0.78-0.08,1.21-0.23c0.43-0.16,0.88-0.39,1.36-0.69c0.01-0.38,0.02-0.61,0.02-0.7
		c0-3.61-0.05-5.79-0.15-6.53c-0.14-0.99-0.51-1.75-1.13-2.29s-1.36-0.8-2.24-0.8c-0.5,0-0.98,0.09-1.43,0.27
		c-0.45,0.18-0.82,0.44-1.1,0.79c-0.42,0.5-0.74,1.07-0.96,1.71c-0.3,0.89-0.45,1.72-0.45,2.49c0,1.85,0.39,3.27,1.18,4.26
		C137.17,186.33,138.19,186.9,139.46,187.04z"/>
	<path d="M149.56,188.85l-0.03-1.11l1.93-0.26c0.29-0.08,0.48-0.2,0.59-0.35c0.11-0.15,0.16-0.5,0.16-1.03v-0.19
		c0-0.14,0.01-0.38,0.03-0.74c0.02-0.36,0.03-0.68,0.03-0.95c0-0.22-0.02-0.63-0.05-1.25l0.03-0.85l-0.03-0.8l0.05-2.79
		c0-0.35-0.03-0.72-0.1-1.09c-0.13-0.17-0.36-0.32-0.69-0.44c-0.33-0.12-0.91-0.22-1.74-0.27v-0.96c1.17-0.07,2.2-0.31,3.09-0.73
		c0.6-0.27,1.26-0.76,1.97-1.45h1.15c0.04,1.41,0.07,3.25,0.07,5.5l-0.12,6.97c0,0.48,0.02,0.91,0.07,1.3
		c0.35,0.13,0.93,0.25,1.73,0.38c0.31,0.05,0.55,0.1,0.74,0.17l-0.03,0.94c-0.31,0.01-0.53,0.02-0.68,0.02
		c-0.17,0-0.43-0.01-0.78-0.03c-1.16-0.06-2.71-0.09-4.66-0.09c-0.56,0-1.1,0.02-1.62,0.06
		C150.11,188.84,149.75,188.85,149.56,188.85z M151.95,168.47c0-0.62,0.2-1.12,0.6-1.51c0.4-0.39,0.91-0.59,1.54-0.59
		c0.67,0,1.23,0.21,1.67,0.62c0.45,0.42,0.67,0.89,0.67,1.41c0,0.39-0.09,0.77-0.26,1.16c-0.18,0.39-0.46,0.7-0.84,0.93
		c-0.38,0.23-0.77,0.35-1.17,0.35c-0.55,0-1.05-0.23-1.51-0.7C152.18,169.68,151.95,169.12,151.95,168.47z"/>
	<path d="M173.67,176.4c0.73,0.71,1.27,1.52,1.63,2.43c0.36,0.92,0.54,1.78,0.54,2.59c0,1.53-0.23,2.76-0.7,3.69
		c-0.71,1.41-1.66,2.46-2.86,3.13c-1.2,0.67-2.59,1.01-4.17,1.01c-1.78,0-3.29-0.4-4.52-1.2c-1.24-0.8-2.12-1.7-2.65-2.72
		c-0.53-1.01-0.8-2.27-0.8-3.78c0-0.76,0.13-1.53,0.38-2.3c0.25-0.77,0.6-1.44,1.04-2.01c0.44-0.57,0.92-1.05,1.45-1.44
		c0.76-0.55,1.53-0.94,2.3-1.17c0.77-0.23,1.7-0.35,2.8-0.35C170.48,174.29,172.34,175,173.67,176.4z M164.32,182.3
		c0.1,1.41,0.18,2.23,0.22,2.45c0.15,0.76,0.38,1.42,0.7,1.97c0.22,0.35,0.58,0.67,1.08,0.94c0.5,0.27,1.1,0.41,1.79,0.41
		c0.83,0,1.53-0.27,2.1-0.8c0.57-0.53,0.98-1.36,1.23-2.49c0.16-0.74,0.24-1.96,0.24-3.64c0-2.08-0.34-3.54-1.03-4.41
		s-1.58-1.29-2.7-1.29c-0.88,0-1.6,0.25-2.18,0.74c-0.58,0.49-0.98,1.21-1.21,2.17C164.43,178.97,164.35,180.28,164.32,182.3z"/>
</g>
</svg>
