<svg xmlns="http://www.w3.org/2000/svg" viewBox="0 0 176.17 193.24" style="enable-background:new 0 0 176.17 193.24" xml:space="preserve">
    <path style="fill:#ee2c7b" d="M136.08 90.02c-.1-6.4-1.3-14.6-5-22.8-3.7-8.2-9.7-13.5-16.5-17.3s-17.3-6.2-22.5-7.2c-5.3-1-11.9-2.3-15.6-4.5-3.7-2.1-4.4-3.4-6.3-7s-1.2-10.4-.9-11.6c.3-1.2 1-4.5 5.5-4.6s11.8 2.5 14.4 2.8c2.6.4 6.4 1.8 11.3-2.3s4.2-14.1 4.2-14.1c-1.4 6.4-4.6 7.5-10.8 7.4-6.2-.1-8.1-.7-15.3-2.3-7.2-1.6-11.4 0-12.3.3s-5.7 2.1-8.4 7.3c-2.7 5.1-2.7 11.4-2.5 13.8.2 2.5.9 7.9 4.4 12.5 3.3 4.5 4 5.3 4.4 5.9-3 1.7-8.6 4.2-13.2 8.1-4.9 4.2-9.1 10.2-10.8 15.8s-2.8 8.8-3 17.7 1.8 17.8 3.2 23.2c1.4 5.4 5.9 14.7 9.9 19.9 4 5.2 10.5 12 22.3 16.3 11.7 4.3 26.2.4 33.1-2.8 6.9-3.3 15.5-9.2 19.7-15.2 4.2-6 7.5-12.2 9.4-19.8 1.8-7.7 1.4-13.1 1.3-19.5zm-16 15.5c-.9 3.8-1.9 11-8.8 22-6.8 11-15.3 16.4-25.4 16.3s-19.1-7.3-24.3-13.9c-5.2-6.6-7.7-12.6-10.3-20.4-2.6-7.7-2.6-16.8-2.6-20.1 0-3.3.4-10.3 3.1-17.1s4.8-9.7 8-14.1 4.9-5.9 6.9-7.5c.7-.5 1.3-1 1.7-1.3 2.2 1.1 5.8 2.7 17.5 5.3 13.5 3 19.3 7.3 23.1 10 3.8 2.7 10.2 9.9 12.1 19.3 2 9.4 0 17.7-1 21.5z"/>
    <path style="fill:none;stroke:#ee2c7b;stroke-width:1.25;stroke-miterlimit:10" d="m79.08 48.92-28.3 77.5M87.38 53.42l-29.2 79.9M96.18 56.62l-30.6 83.6M106.78 55.02l-32.8 89.6M113.78 63.02l-30.6 83.6M123.38 63.82l-30.5 83.6"/>
    <path style="fill:#ee2c7b" d="M15.28 162.72h2.8l-12.5 29.1h-2.8l12.5-29.1zM24.58 173.92c.6-.4 1.1-.7 1.6-.8.5-.2 1.2-.3 2.2-.4h1c1.2 0 2.4.4 3.6 1.3v-1.5l.1-1.8c0-1.9-.1-3.1-.4-3.7-.2-.3-.5-.5-.9-.5s-.8-.1-1-.2v-.8c.2-.1.5-.1.8-.1s1-.1 2-.4l.6-.1 1.7-.4c.3-.1.6-.1.6-.1h.3c.1.2.1.4.1.5v.6c0 .3 0 1.2.1 2.5v2.3l.1 1.8V176.72c0 .2 0 .4.1.7V185.02c.2.1.7.2 1.5.3.2 0 .5 0 .7.1.1.2.1.3.1.4s0 .3-.1.5l-1.5.3c-1.6.2-2.7.5-3.3.8-.3.2-.5.3-.7.3h-.4v-.4c0-.8 0-1.3-.1-1.5-.2.1-.4.2-.6.4-.8.5-1.5.8-2.1 1s-1.3.3-2.2.3c-1.4 0-2.6-.3-3.4-.8-1.3-.8-2.1-1.8-2.6-2.9s-.7-2.3-.7-3.7c-.4-2.6.7-4.6 2.8-6.2zm5.3 11.3h.6c.4 0 .8-.1 1.2-.2.4-.2.9-.4 1.4-.7v-.7c0-3.6-.1-5.8-.2-6.5-.1-1-.5-1.8-1.1-2.3-.6-.5-1.4-.8-2.2-.8-.5 0-1 .1-1.4.3-.5.2-.8.4-1.1.8-.4.5-.7 1.1-1 1.7-.3.9-.4 1.7-.4 2.5 0 1.9.4 3.3 1.2 4.3.7.9 1.7 1.4 3 1.6zM40.88 177.92c.3-1 .6-1.6.8-1.9.6-.9 1.3-1.7 2-2.2s1.4-.9 2-1c.8-.2 1.4-.3 1.8-.3 1.1 0 1.9.1 2.6.2.7.2 1.2.4 1.7.7.6.4 1.2.9 1.5 1.3.4.5.7 1 .9 1.6s.4 1.4.4 2.2h-1.9c-.5 0-1.7 0-3.5-.1-.7-.1-1.1-.1-1.4-.1h-3.3v.4c0 .6.1 1.2.2 1.9s.4 1.3.7 1.8.7.9 1.1 1.3c.4.4.9.6 1.4.8l1 .3c.9 0 1.5 0 1.8-.1.5-.1 1-.3 1.4-.4s.9-.5 1.5-.9c.4.3.8.6 1 .8-1 1.1-2 1.9-3.1 2.4s-2.3.7-3.6.7c-.9 0-1.6-.1-2.2-.2-.8-.2-1.5-.5-2.1-.9s-1.1-.9-1.6-1.6c-.4-.6-.8-1.3-1-1.9-.3-.9-.4-1.6-.4-2.1.1-1 .2-1.9.3-2.7zm9.9-.7c0-.6-.1-1.3-.4-1.8-.2-.6-.6-1-1.1-1.4-.5-.3-1-.5-1.5-.5-.8 0-1.5.3-2.1 1s-1 1.6-1 2.7h3.9c.2 0 .6 0 1.1-.1h.7c.1.1.2.1.4.1zM55.68 173.02h.4l3.6.1h1.1l2.3-.1h.4c.1.2.1.4.1.5s0 .3-.1.6c-.2 0-.5.1-.8.1-.6.1-.9.2-1 .3-.1.1-.2.1-.2.2 0 .2.1.4.2.7.1.1.2.5.5 1.1.1.3.3.7.6 1.2.9 1.8 1.5 3.1 1.8 4.1.2.6.4 1 .5 1.3.8-1.8 1.7-4.2 2.6-7 .2-.7.4-1.3.4-1.8-.7-.1-1.3-.2-1.9-.2h-.5v-.6c0-.3 0-.5.1-.6H68.68c.5 0 1 .1 1.6.1l1.4-.1h.5v1c-1.2.3-2 .5-2.4.8-.1.2-.1.3-.2.3l-.1.2c-.5 1.4-1.2 3.2-2.2 5.4l-1.8 4.5c-.2.6-.4 1-.5 1.2-.2.4-.4.7-.5 1h-1.4c-.4-.8-.9-1.7-1.4-2.8l-2.3-5.2c-.6-1.4-1.2-2.8-1.9-4.4-.1-.2-.2-.3-.2-.4-.9-.2-1.5-.4-1.6-.6v-.5c-.1 0-.1-.2 0-.4zM86.38 162.72h2.8l-12.5 29.1h-2.8l12.5-29.1zM106.98 183.82l.4.3c.1.1.2.2.2.3v.1c-.3 1-.6 1.7-1.1 2.1-.4.4-1 .6-1.7.6s-1.2-.2-1.7-.6-.9-1-1.3-2c-.5.9-1.2 1.5-2.1 2s-2 .7-3.3.7c-1.2 0-2.1-.2-2.6-.7-.6-.5-.8-1.1-.8-2 0-.4.1-.8.2-1.1.2-.4.4-.8.8-1.2.4-.4 1-.8 1.8-1.3.1-.1.6-.3 1.3-.6l4.3-1.7c0-.4.1-.9.1-1.3 0-1.5-.2-2.6-.6-3.1-.2-.3-.6-.5-1.2-.5s-1.1.1-1.6.3c-.5.2-.8.5-1 .8s-.3.7-.4 1.4c-.1.5-.2.8-.2.9-.2.2-.5.4-.9.6s-.8.3-.9.4c-.6.3-1.1.4-1.5.4-.2-.1-.2-.3-.2-.6 0-.6.1-1.2.4-1.7.4-.7 1-1.3 1.9-1.9.8-.6 1.6-1.1 2.3-1.3 1-.3 2.2-.5 3.6-.5.9 0 1.7.2 2.3.5s1.1.8 1.4 1.5.4 1.9.4 3.6v5.4c0 .5.1.8.2 1s.3.3.5.3c.1 0 .2 0 .3-.1l.5-.8.2-.2zm-5.6-4c-.7.2-1.4.6-2.2 1.1-.8.5-1.4 1-1.7 1.5-.2.4-.3.8-.3 1.4 0 .5.1.9.4 1.2.3.3.6.5 1 .5.6 0 1.2-.2 1.6-.5.6-.5 1-.9 1.1-1.2.1-.3.2-1.1.2-2.5 0-.5 0-1-.1-1.5zM108.78 173.22c.1 0 .2-.1.3-.1h5.5v1.1l-.1 1.7v5.3c0 1.1.1 2.1.2 2.7.2.5.4.9.8 1.1s.8.4 1.4.4c.5 0 .9-.1 1.2-.2.3-.1.7-.3 1.1-.6.4-.3.7-.5.8-.6.3-.4.6-.7.7-1l.1-4.2v-4c-.3-.2-.7-.3-1.1-.3l-1.1-.1c-.1 0-.1-.1-.2-.1 0-.2-.1-.4-.1-.5s0-.3.1-.6c.4-.1.7-.1 1-.1h5.2v1.3l-.1 1.6V183.12c0 .6-.1.9-.1 1 0 .3.1.5.2.6s.2.2.3.2l1.6-.1h.2c0 .4.1.6.1.7s0 .2-.1.4c-.6 0-1 .1-1.3.1-1.2.3-2.6.7-4 1.2h-.7v-2.8c-.1.1-.3.3-.6.5-1 .9-1.9 1.5-2.6 1.8s-1.5.5-2.3.5c-.9 0-1.7-.2-2.4-.6s-1.2-.9-1.5-1.4c-.2-.4-.4-1.1-.5-1.9v-3.8c.1-1.1.1-1.9.1-2.5 0-.9 0-1.5-.1-1.8 0-.1-.1-.3-.2-.5-.2-.1-.3-.1-.6-.2-.7-.1-1.2-.2-1.4-.4-.1 0-.1-.1-.1-.2v-.3c.3 0 .3-.2.3-.4zM131.78 173.92c.6-.4 1.1-.7 1.6-.8.5-.2 1.2-.3 2.2-.4h1c1.2 0 2.4.4 3.6 1.3v-1.5l.1-1.8c0-1.9-.1-3.1-.4-3.7-.2-.3-.5-.5-.9-.5s-.8-.1-1-.2v-.8c.2-.1.5-.1.8-.1s1-.1 2-.4l.6-.1 1.7-.4c.3-.1.6-.1.6-.1h.3c.1.2.1.4.1.5v.6c0 .3 0 1.2.1 2.5v2.3l.1 1.8V176.72c0 .2 0 .4.1.7V185.02c.2.1.7.2 1.5.3.2 0 .5 0 .7.1.1.2.1.3.1.4s0 .3-.1.5l-1.5.3c-1.6.2-2.7.5-3.3.8-.3.2-.5.3-.7.3h-.4v-.4c0-.8 0-1.3-.1-1.5-.2.1-.4.2-.6.4-.8.5-1.5.8-2.1 1s-1.3.3-2.2.3c-1.4 0-2.6-.3-3.4-.8-1.3-.8-2.1-1.8-2.6-2.9s-.7-2.3-.7-3.7c-.3-2.6.7-4.6 2.8-6.2zm5.3 11.3h.6c.4 0 .8-.1 1.2-.2.4-.2.9-.4 1.4-.7v-.7c0-3.6-.1-5.8-.2-6.5-.1-1-.5-1.8-1.1-2.3s-1.4-.8-2.2-.8c-.5 0-1 .1-1.4.3-.5.2-.8.4-1.1.8-.4.5-.7 1.1-1 1.7-.3.9-.4 1.7-.4 2.5 0 1.9.4 3.3 1.2 4.3.7.9 1.7 1.4 3 1.6zM147.18 187.02v-1.1l1.9-.3c.3-.1.5-.2.6-.4.1-.2.2-.5.2-1V182.42c0-.2 0-.6-.1-1.2V179.52l.1-2.8c0-.4 0-.7-.1-1.1-.1-.2-.4-.3-.7-.4-.3-.1-.9-.2-1.7-.3v-1c1.2-.1 2.2-.3 3.1-.7.6-.3 1.3-.8 2-1.5h1.1c0 1.4.1 3.2.1 5.5l-.1 7c0 .5 0 .9.1 1.3.4.1.9.3 1.7.4.3 0 .6.1.7.2v.9h-1.5c-1.2-.1-2.7-.1-4.7-.1-.6 0-1.1 0-1.6.1h-1.1zm2.4-20.4c0-.6.2-1.1.6-1.5s.9-.6 1.5-.6c.7 0 1.2.2 1.7.6.4.4.7.9.7 1.4 0 .4-.1.8-.3 1.2-.2.4-.5.7-.8.9s-.8.4-1.2.4c-.5 0-1.1-.2-1.5-.7-.5-.5-.7-1.1-.7-1.7zM171.28 174.52c.7.7 1.3 1.5 1.6 2.4s.5 1.8.5 2.6c0 1.5-.2 2.8-.7 3.7-.7 1.4-1.7 2.5-2.9 3.1-1.2.7-2.6 1-4.2 1-1.8 0-3.3-.4-4.5-1.2-1.2-.8-2.1-1.7-2.7-2.7-.5-1-.8-2.3-.8-3.8 0-.8.1-1.5.4-2.3s.6-1.4 1-2 .9-1 1.4-1.4c.8-.5 1.5-.9 2.3-1.2.8-.2 1.7-.4 2.8-.4 2.6.1 4.5.8 5.8 2.2zm-9.3 5.9c.1 1.4.2 2.2.2 2.4.1.8.4 1.4.7 2 .2.4.6.7 1.1.9.5.3 1.1.4 1.8.4.8 0 1.5-.3 2.1-.8s1-1.4 1.2-2.5c.2-.7.2-2 .2-3.6 0-2.1-.3-3.5-1-4.4s-1.6-1.3-2.7-1.3c-.9 0-1.6.2-2.2.7s-1 1.2-1.2 2.2c-.1.7-.2 2-.2 4z"/>
</svg>
